<svg width="315" height="82" xmlns="http://www.w3.org/2000/svg" xmlns:xlink="http://www.w3.org/1999/xlink" xml:space="preserve" overflow="hidden"><defs><clipPath id="clip0"><rect x="22" y="232" width="315" height="82"/></clipPath></defs><g clip-path="url(#clip0)" transform="translate(-22 -232)"><path d="M193.267 63.1192 193.267 55.9606 200.893 48.3354 200.893 41.1804 192.419 41.1804 192.419 44.8286 189.029 48.2152 185.642 44.8286 185.642 41.1804 177.169 41.1804 177.169 48.3354 184.794 55.9606 184.794 63.1192" stroke="#B59666" stroke-width="0.176755" stroke-miterlimit="10" fill="none" transform="matrix(1.00331 0 0 1 -171.529 232.049)"/><path d="M257.659 63.1192 257.659 55.9606 265.284 48.3354 265.284 41.1804 256.811 41.1804 256.811 44.8286 253.424 48.2152 250.034 44.8286 250.034 41.1804 241.56 41.1804 241.56 48.3354 249.186 55.9606 249.186 63.1192" stroke="#B59666" stroke-width="0.176755" stroke-miterlimit="10" fill="none" transform="matrix(1.00331 0 0 1 -171.529 232.049)"/><path d="M225.462 63.1192 225.462 55.9606 233.087 48.3354 233.087 41.1804 224.617 41.1804 224.617 44.8286 221.226 48.2152 217.836 44.8286 217.836 41.1804 209.366 41.1804 209.366 48.3354 216.991 55.9606 216.991 63.1192" stroke="#B59666" stroke-width="0.176755" stroke-miterlimit="10" fill="none" transform="matrix(1.00331 0 0 1 -171.529 232.049)"/><path d="M161.07 63.1192 161.07 55.9606 168.695 48.3354 168.695 41.1804 160.221 41.1804 160.221 44.8286 156.835 48.2152 153.445 44.8286 153.445 41.1804 144.971 41.1804 144.971 48.3354 152.596 55.9606 152.596 63.1192" stroke="#B59666" stroke-width="0.176755" stroke-miterlimit="10" fill="none" transform="matrix(1.00331 0 0 1 -171.529 232.049)"/><path d="M64.4802 63.1192 64.4802 55.9606 72.1054 48.3354 72.1054 41.1804 63.6353 41.1804 63.6353 44.8286 60.2452 48.2152 56.855 44.8286 56.855 41.1804 48.3814 41.1804 48.3814 48.3354 56.0101 55.9606 56.0101 63.1192" stroke="#B59666" stroke-width="0.176755" stroke-miterlimit="10" fill="none" transform="matrix(1.00331 0 0 1 -171.529 232.049)"/><path d="M128.876 63.1192 128.876 55.9606 136.501 48.3354 136.501 41.1804 128.027 41.1804 128.027 44.8286 124.637 48.2152 121.247 44.8286 121.247 41.1804 112.777 41.1804 112.777 48.3354 120.402 55.9606 120.402 63.1192" stroke="#B59666" stroke-width="0.176755" stroke-miterlimit="10" fill="none" transform="matrix(1.00331 0 0 1 -171.529 232.049)"/><path d="M96.6779 63.1192 96.6779 55.9606 104.303 48.3354 104.303 41.1804 95.8295 41.1804 95.8295 44.8286 92.4428 48.2152 89.0527 44.8286 89.0527 41.1804 80.579 41.1804 80.579 48.3354 88.2043 55.9606 88.2043 63.1192" stroke="#B59666" stroke-width="0.176755" stroke-miterlimit="10" fill="none" transform="matrix(1.00331 0 0 1 -171.529 232.049)"/><path d="M32.2861 63.1192 32.2861 55.9606 39.9113 48.3354 39.9113 41.1804 31.4376 41.1804 31.4376 44.8286 28.0475 48.2152 24.6609 44.8286 24.6609 41.1804 16.1872 41.1804 16.1872 48.3354 23.8124 55.9606 23.8124 63.1192" stroke="#B59666" stroke-width="0.176755" stroke-miterlimit="10" fill="none" transform="matrix(1.00331 0 0 1 -171.529 232.049)"/><path d="M161.07 63.1192 169.543 71.5928 169.543 59.471 172.934 56.0808 176.32 59.471 176.32 71.5928 184.794 63.1192 184.794 55.9606 177.169 48.3354 177.169 41.1804 168.695 41.1804 168.695 48.3354 161.07 55.9606 161.07 63.1192Z" stroke="#B59666" stroke-width="0.176755" stroke-miterlimit="10" fill="none" transform="matrix(1.00331 0 0 1 -171.529 232.049)"/><path d="M128.876 63.1192 137.346 71.5928 137.346 59.471 140.736 56.0808 144.126 59.471 144.126 71.5928 152.596 63.1192 152.596 55.9606 144.971 48.3354 144.971 41.1804 136.501 41.1804 136.501 48.3354 128.876 55.9606 128.876 63.1192Z" stroke="#B59666" stroke-width="0.176755" stroke-miterlimit="10" fill="none" transform="matrix(1.00331 0 0 1 -171.529 232.049)"/><path d="M225.462 63.1192 233.935 71.5928 233.935 59.471 237.325 56.0808 240.715 59.471 240.715 71.5928 249.186 63.1192 249.186 55.9606 241.56 48.3354 241.56 41.1804 233.087 41.1804 233.087 48.3354 225.462 55.9606 225.462 63.1192Z" stroke="#B59666" stroke-width="0.176755" stroke-miterlimit="10" fill="none" transform="matrix(1.00331 0 0 1 -171.529 232.049)"/><path d="M193.267 63.1192 201.737 71.5928 201.737 59.471 205.128 56.0808 208.518 59.471 208.518 71.5928 216.991 63.1192 216.991 55.9606 209.366 48.3354 209.366 41.1804 200.893 41.1804 200.893 48.3354 193.267 55.9606 193.267 63.1192Z" stroke="#B59666" stroke-width="0.176755" stroke-miterlimit="10" fill="none" transform="matrix(1.00331 0 0 1 -171.529 232.049)"/><path d="M32.2861 63.1192 40.7562 71.5928 40.7562 59.471 44.1463 56.0808 47.5365 59.471 47.5365 71.5928 56.0101 63.1192 56.0101 55.9606 48.3814 48.3354 48.3814 41.1804 39.9113 41.1804 39.9113 48.3354 32.2861 55.9606 32.2861 63.1192Z" stroke="#B59666" stroke-width="0.176755" stroke-miterlimit="10" fill="none" transform="matrix(1.00331 0 0 1 -171.529 232.049)"/><path d="M0.0883775 63.1192 8.56201 71.5928 8.56201 59.471 11.9486 56.0808 15.3388 59.471 15.3388 71.5928 23.8124 63.1192 23.8124 55.9606 16.1872 48.3354 16.1872 41.1804 7.71359 41.1804 7.71359 48.3354 0.0883775 55.9606 0.0883775 63.1192Z" stroke="#B59666" stroke-width="0.176755" stroke-miterlimit="10" fill="none" transform="matrix(1.00331 0 0 1 -171.529 232.049)"/><path d="M96.6779 63.1192 105.152 71.5928 105.152 59.471 108.538 56.0808 111.928 59.471 111.928 71.5928 120.402 63.1192 120.402 55.9606 112.777 48.3354 112.777 41.1804 104.303 41.1804 104.303 48.3354 96.6779 55.9606 96.6779 63.1192Z" stroke="#B59666" stroke-width="0.176755" stroke-miterlimit="10" fill="none" transform="matrix(1.00331 0 0 1 -171.529 232.049)"/><path d="M64.4802 63.1192 72.9538 71.5928 72.9538 59.471 76.344 56.0808 79.7306 59.471 79.7306 71.5928 88.2043 63.1192 88.2043 55.9606 80.579 48.3354 80.579 41.1804 72.1054 41.1804 72.1054 48.3354 64.4802 55.9606 64.4802 63.1192Z" stroke="#B59666" stroke-width="0.176755" stroke-miterlimit="10" fill="none" transform="matrix(1.00331 0 0 1 -171.529 232.049)"/><path d="M40.0067 33.3112 48.4096 33.3112 48.4096 41.1521 40.0067 41.1521Z" stroke="#B59666" stroke-width="0.176755" stroke-miterlimit="10" fill="none" transform="matrix(1.00331 0 0 1 -171.529 232.049)"/><path d="M39.837 25.983C39.5578 23.8018 38.9957 21.6878 38.073 19.7294L45.6982 16.1978C47.0027 18.9764 47.8051 21.9742 48.1799 24.9755L39.837 25.983Z" stroke="#B59666" stroke-width="0.176755" stroke-miterlimit="10" fill="none" transform="matrix(1.00331 0 0 1 -171.529 232.049)"/><path d="M40.0067 33.3112 40.0067 28.8994C40.0067 28.7404 39.9996 28.6131 39.9961 28.4717L39.9714 27.6339C39.9714 27.3546 39.9289 27.0824 39.9113 26.8067 39.883 26.5309 39.8724 26.2552 39.8335 25.983L48.1763 24.9755C48.2258 25.3502 48.247 25.7249 48.2824 26.1032 48.3071 26.4779 48.3602 26.8561 48.3637 27.2273L48.3955 28.3515 48.4061 28.903 48.4061 33.3148 40.0032 33.3148Z" stroke="#B59666" stroke-width="0.176755" stroke-miterlimit="10" fill="none" transform="matrix(1.00331 0 0 1 -171.529 232.049)"/><path d="M34.4389 14.3101C32.9471 12.6769 31.1902 11.2239 29.2883 10.0291L33.7708 2.91999C36.2878 4.50725 38.6033 6.41267 40.6395 8.63978L34.4389 14.3101Z" stroke="#B59666" stroke-width="0.176755" stroke-miterlimit="10" fill="none" transform="matrix(1.00331 0 0 1 -171.529 232.049)"/><path d="M38.073 19.7294C37.1751 17.7603 35.9272 15.9468 34.4425 14.3101L40.643 8.63978C42.6686 10.8669 44.4221 13.4122 45.6982 16.2014L38.073 19.7329Z" stroke="#B59666" stroke-width="0.176755" stroke-miterlimit="10" fill="none" transform="matrix(1.00331 0 0 1 -171.529 232.049)"/><path d="M26.8597 10.0255C24.9578 11.2239 23.2009 12.6733 21.709 14.3065L15.5085 8.63625C17.5447 6.40913 19.8602 4.50725 22.3772 2.91646L26.8597 10.0255Z" stroke="#B59666" stroke-width="0.176755" stroke-miterlimit="10" fill="none" transform="matrix(1.00331 0 0 1 -171.529 232.049)"/><path d="M29.2883 10.0255C29.0514 9.87353 28.8111 9.73213 28.5707 9.58719L28.0722 9.30438 27.5738 9.58719C27.3334 9.72859 27.093 9.87353 26.8561 10.0255L22.3736 2.91646C22.6883 2.71496 23.01 2.52406 23.3317 2.33317 23.4907 2.23772 23.6569 2.14581 23.8195 2.05389L24.1094 1.89128 24.5442 1.66503C24.8341 1.51302 25.1204 1.35748 25.4138 1.22314 25.7072 1.08174 25.9971 0.940336 26.2941 0.820143 26.8844 0.565616 27.4713 0.33937 28.0687 0.0954477 28.6626 0.33937 29.2494 0.569151 29.8433 0.820143 30.1403 0.940336 30.4301 1.08174 30.7235 1.22314 31.017 1.35748 31.3068 1.51302 31.5932 1.66503L32.028 1.89128 32.3179 2.05389C32.4805 2.14581 32.6466 2.23772 32.8057 2.33317 33.1274 2.52406 33.4491 2.71496 33.7637 2.91646L29.2812 10.0255Z" stroke="#B59666" stroke-width="0.176755" stroke-miterlimit="10" fill="none" transform="matrix(1.00331 0 0 1 -171.529 232.049)"/><path d="M18.0785 19.7294C17.1558 21.6878 16.5938 23.7983 16.3145 25.983L7.97165 24.9755C8.34637 21.9742 9.14884 18.9764 10.4533 16.1978L18.0785 19.7294Z" stroke="#B59666" stroke-width="0.176755" stroke-miterlimit="10" fill="none" transform="matrix(1.00331 0 0 1 -171.529 232.049)"/><path d="M21.709 14.3101C20.2208 15.9468 18.9764 17.7639 18.0785 19.7294L10.4533 16.1978C11.733 13.4086 13.4829 10.8669 15.5085 8.63978L21.709 14.3101Z" stroke="#B59666" stroke-width="0.176755" stroke-miterlimit="10" fill="none" transform="matrix(1.00331 0 0 1 -171.529 232.049)"/><path d="M7.74187 33.3112 16.1448 33.3112 16.1448 41.1521 7.74187 41.1521Z" stroke="#B59666" stroke-width="0.176755" stroke-miterlimit="10" fill="none" transform="matrix(1.00331 0 0 1 -171.529 232.049)"/><path d="M16.3145 25.983C16.2756 26.2552 16.265 26.5345 16.2367 26.8067 16.219 27.0824 16.1731 27.3546 16.1766 27.6339L16.1519 28.4717C16.1519 28.6166 16.1413 28.7404 16.1413 28.8994L16.1413 33.3112 7.73833 33.3112 7.73833 28.8994 7.74894 28.348 7.78075 27.2238C7.78075 26.8491 7.83378 26.4744 7.86206 26.0996 7.89741 25.7249 7.91862 25.3502 7.96811 24.9719L16.3109 25.9794Z" stroke="#B59666" stroke-width="0.176755" stroke-miterlimit="10" fill="none" transform="matrix(1.00331 0 0 1 -171.529 232.049)"/><path d="M104.374 33.3395 112.777 33.3395 112.777 41.1804 104.374 41.1804Z" stroke="#B59666" stroke-width="0.176755" stroke-miterlimit="10" fill="none" transform="matrix(1.00331 0 0 1 -171.529 232.049)"/><path d="M104.201 26.0077C103.921 23.8266 103.359 21.7126 102.437 19.7541L110.062 16.2226C111.366 19.0012 112.169 21.9989 112.543 25.0002L104.201 26.0077Z" stroke="#B59666" stroke-width="0.176755" stroke-miterlimit="10" fill="none" transform="matrix(1.00331 0 0 1 -171.529 232.049)"/><path d="M104.374 33.3395 104.374 28.9277C104.374 28.7686 104.367 28.6414 104.363 28.5L104.338 27.6621C104.338 27.3829 104.296 27.1107 104.278 26.8349 104.25 26.5592 104.239 26.2835 104.201 26.0113L112.543 25.0038C112.593 25.3785 112.614 25.7532 112.649 26.1315 112.674 26.5062 112.727 26.8844 112.731 27.2556L112.763 28.3798 112.773 28.9312 112.773 33.3431 104.37 33.3431Z" stroke="#B59666" stroke-width="0.176755" stroke-miterlimit="10" fill="none" transform="matrix(1.00331 0 0 1 -171.529 232.049)"/><path d="M98.806 14.3348C97.3142 12.7016 95.5573 11.2487 93.6554 10.0538L98.1379 2.94474C100.655 4.532 102.97 6.43742 105.007 8.66453L98.806 14.3348Z" stroke="#B59666" stroke-width="0.176755" stroke-miterlimit="10" fill="none" transform="matrix(1.00331 0 0 1 -171.529 232.049)"/><path d="M102.44 19.7577C101.542 17.7886 100.294 15.9751 98.8096 14.3384L105.01 8.66806C107.036 10.8952 108.789 13.4404 110.065 16.2296L102.44 19.7612Z" stroke="#B59666" stroke-width="0.176755" stroke-miterlimit="10" fill="none" transform="matrix(1.00331 0 0 1 -171.529 232.049)"/><path d="M91.2268 10.0538C89.3249 11.2522 87.5679 12.7016 86.0761 14.3348L79.8756 8.66453C81.9118 6.43742 84.2273 4.53553 86.7443 2.94474L91.2268 10.0538Z" stroke="#B59666" stroke-width="0.176755" stroke-miterlimit="10" fill="none" transform="matrix(1.00331 0 0 1 -171.529 232.049)"/><path d="M93.6554 10.0538C93.4185 9.90181 93.1781 9.76041 92.9378 9.61547L92.4393 9.33266 91.9408 9.61547C91.7005 9.75687 91.4601 9.90181 91.2232 10.0538L86.7407 2.94474C87.0553 2.74324 87.377 2.55234 87.6987 2.36145 87.8578 2.266 88.024 2.17409 88.1866 2.08217L88.4765 1.91956 88.9113 1.69331C89.2012 1.5413 89.4875 1.38576 89.7809 1.25143 90.0743 1.11002 90.3642 0.968617 90.6611 0.848424 91.2515 0.593897 91.8383 0.36765 92.4358 0.123728 93.0297 0.36765 93.6165 0.597432 94.2104 0.848424 94.5073 0.968617 94.7972 1.11002 95.0906 1.25143 95.384 1.38576 95.6739 1.5413 95.9603 1.69331L96.3951 1.91956 96.685 2.08217C96.8476 2.17409 97.0137 2.266 97.1728 2.36145 97.4945 2.55234 97.8162 2.74324 98.1308 2.94474L93.6483 10.0538Z" stroke="#B59666" stroke-width="0.176755" stroke-miterlimit="10" fill="none" transform="matrix(1.00331 0 0 1 -171.529 232.049)"/><path d="M82.442 19.7577C81.5194 21.7161 80.9573 23.8266 80.678 26.0113L72.3352 25.0038C72.7099 22.0025 73.5124 19.0047 74.8168 16.2261L82.442 19.7577Z" stroke="#B59666" stroke-width="0.176755" stroke-miterlimit="10" fill="none" transform="matrix(1.00331 0 0 1 -171.529 232.049)"/><path d="M86.0761 14.3348C84.5879 15.9716 83.3435 17.7886 82.4456 19.7541L74.8204 16.2226C76.1001 13.4334 77.85 10.8916 79.8756 8.66453L86.0761 14.3348Z" stroke="#B59666" stroke-width="0.176755" stroke-miterlimit="10" fill="none" transform="matrix(1.00331 0 0 1 -171.529 232.049)"/><path d="M72.1054 33.3395 80.5083 33.3395 80.5083 41.1804 72.1054 41.1804Z" stroke="#B59666" stroke-width="0.176755" stroke-miterlimit="10" fill="none" transform="matrix(1.00331 0 0 1 -171.529 232.049)"/><path d="M80.6816 26.0077C80.6427 26.2799 80.6321 26.5592 80.6038 26.8314 80.5861 27.1071 80.5402 27.3793 80.5437 27.6586L80.519 28.4964C80.519 28.6414 80.5083 28.7651 80.5083 28.9242L80.5083 33.336 72.1054 33.336 72.1054 28.9242 72.116 28.3727 72.1478 27.2485C72.1478 26.8738 72.2009 26.4991 72.2291 26.1244 72.2645 25.7497 72.2857 25.3749 72.3352 24.9967L80.678 26.0042Z" stroke="#B59666" stroke-width="0.176755" stroke-miterlimit="10" fill="none" transform="matrix(1.00331 0 0 1 -171.529 232.049)"/><path d="M168.766 33.3395 177.169 33.3395 177.169 41.1804 168.766 41.1804Z" stroke="#B59666" stroke-width="0.176755" stroke-miterlimit="10" fill="none" transform="matrix(1.00331 0 0 1 -171.529 232.049)"/><path d="M168.592 26.0077C168.313 23.8266 167.751 21.7126 166.828 19.7541L174.454 16.2226C175.758 19.0012 176.561 21.9989 176.935 25.0002L168.592 26.0077Z" stroke="#B59666" stroke-width="0.176755" stroke-miterlimit="10" fill="none" transform="matrix(1.00331 0 0 1 -171.529 232.049)"/><path d="M168.766 33.3395 168.766 28.9277C168.766 28.7686 168.759 28.6414 168.755 28.5L168.73 27.6621C168.73 27.3829 168.688 27.1107 168.67 26.8349 168.642 26.5592 168.631 26.2835 168.592 26.0113L176.935 25.0038C176.985 25.3785 177.006 25.7532 177.041 26.1315 177.066 26.5062 177.119 26.8844 177.123 27.2556L177.154 28.3798 177.165 28.9312 177.165 33.3431 168.762 33.3431Z" stroke="#B59666" stroke-width="0.176755" stroke-miterlimit="10" fill="none" transform="matrix(1.00331 0 0 1 -171.529 232.049)"/><path d="M163.198 14.3348C161.706 12.7016 159.949 11.2487 158.047 10.0538L162.53 2.94474C165.047 4.532 167.362 6.43742 169.398 8.66453L163.198 14.3348Z" stroke="#B59666" stroke-width="0.176755" stroke-miterlimit="10" fill="none" transform="matrix(1.00331 0 0 1 -171.529 232.049)"/><path d="M166.832 19.7577C165.934 17.7886 164.686 15.9751 163.201 14.3384L169.402 8.66806C171.428 10.8952 173.181 13.4404 174.457 16.2296L166.832 19.7612Z" stroke="#B59666" stroke-width="0.176755" stroke-miterlimit="10" fill="none" transform="matrix(1.00331 0 0 1 -171.529 232.049)"/><path d="M155.619 10.0538C153.717 11.2522 151.96 12.7016 150.468 14.3348L144.267 8.66453C146.304 6.43742 148.619 4.53553 151.136 2.94474L155.619 10.0538Z" stroke="#B59666" stroke-width="0.176755" stroke-miterlimit="10" fill="none" transform="matrix(1.00331 0 0 1 -171.529 232.049)"/><path d="M158.047 10.0538C157.81 9.90181 157.57 9.76041 157.33 9.61547L156.831 9.33266 156.333 9.61547C156.092 9.75687 155.852 9.90181 155.615 10.0538L151.133 2.94474C151.447 2.74324 151.769 2.55234 152.091 2.36145 152.25 2.266 152.416 2.17409 152.578 2.08217L152.868 1.91956 153.303 1.69331C153.593 1.5413 153.879 1.38576 154.173 1.25143 154.466 1.11002 154.756 0.968617 155.053 0.848424 155.643 0.593897 156.23 0.36765 156.828 0.123728 157.421 0.36765 158.008 0.597432 158.602 0.848424 158.899 0.968617 159.189 1.11002 159.482 1.25143 159.776 1.38576 160.066 1.5413 160.352 1.69331L160.787 1.91956 161.077 2.08217C161.239 2.17409 161.406 2.266 161.565 2.36145 161.886 2.55234 162.208 2.74324 162.523 2.94474L158.04 10.0538Z" stroke="#B59666" stroke-width="0.176755" stroke-miterlimit="10" fill="none" transform="matrix(1.00331 0 0 1 -171.529 232.049)"/><path d="M146.837 19.7577C145.915 21.7161 145.353 23.8266 145.073 26.0113L136.731 25.0038C137.105 22.0025 137.908 19.0047 139.212 16.2261L146.837 19.7577Z" stroke="#B59666" stroke-width="0.176755" stroke-miterlimit="10" fill="none" transform="matrix(1.00331 0 0 1 -171.529 232.049)"/><path d="M150.468 14.3348C148.98 15.9716 147.735 17.7886 146.837 19.7541L139.212 16.2226C140.492 13.4334 142.242 10.8916 144.267 8.66453L150.468 14.3348Z" stroke="#B59666" stroke-width="0.176755" stroke-miterlimit="10" fill="none" transform="matrix(1.00331 0 0 1 -171.529 232.049)"/><path d="M136.501 33.3395 144.904 33.3395 144.904 41.1804 136.501 41.1804Z" stroke="#B59666" stroke-width="0.176755" stroke-miterlimit="10" fill="none" transform="matrix(1.00331 0 0 1 -171.529 232.049)"/><path d="M145.073 26.0077C145.035 26.2799 145.024 26.5592 144.996 26.8314 144.978 27.1071 144.932 27.3793 144.936 27.6586L144.911 28.4964C144.911 28.6414 144.9 28.7651 144.9 28.9242L144.9 33.336 136.497 33.336 136.497 28.9242 136.508 28.3727 136.54 27.2485C136.54 26.8738 136.593 26.4991 136.621 26.1244 136.656 25.7497 136.678 25.3749 136.727 24.9967L145.07 26.0042Z" stroke="#B59666" stroke-width="0.176755" stroke-miterlimit="10" fill="none" transform="matrix(1.00331 0 0 1 -171.529 232.049)"/><path d="M233.157 33.3395 241.56 33.3395 241.56 41.1804 233.157 41.1804Z" stroke="#B59666" stroke-width="0.176755" stroke-miterlimit="10" fill="none" transform="matrix(1.00331 0 0 1 -171.529 232.049)"/><path d="M232.988 26.0077C232.709 23.8266 232.146 21.7126 231.224 19.7541L238.849 16.2226C240.153 19.0012 240.956 21.9989 241.331 25.0002L232.988 26.0077Z" stroke="#B59666" stroke-width="0.176755" stroke-miterlimit="10" fill="none" transform="matrix(1.00331 0 0 1 -171.529 232.049)"/><path d="M233.157 33.3395 233.157 28.9277C233.157 28.7686 233.15 28.6414 233.147 28.5L233.122 27.6621C233.122 27.3829 233.08 27.1107 233.062 26.8349 233.034 26.5592 233.023 26.2835 232.984 26.0113L241.327 25.0038C241.377 25.3785 241.398 25.7532 241.433 26.1315 241.458 26.5062 241.511 26.8844 241.514 27.2556L241.546 28.3798 241.557 28.9312 241.557 33.3431 233.154 33.3431Z" stroke="#B59666" stroke-width="0.176755" stroke-miterlimit="10" fill="none" transform="matrix(1.00331 0 0 1 -171.529 232.049)"/><path d="M227.593 14.3348C226.101 12.7016 224.344 11.2487 222.443 10.0538L226.925 2.94474C229.442 4.532 231.758 6.43742 233.794 8.66453L227.593 14.3348Z" stroke="#B59666" stroke-width="0.176755" stroke-miterlimit="10" fill="none" transform="matrix(1.00331 0 0 1 -171.529 232.049)"/><path d="M231.224 19.7577C230.326 17.7886 229.078 15.9751 227.593 14.3384L233.794 8.66806C235.819 10.8952 237.573 13.4404 238.849 16.2296L231.224 19.7612Z" stroke="#B59666" stroke-width="0.176755" stroke-miterlimit="10" fill="none" transform="matrix(1.00331 0 0 1 -171.529 232.049)"/><path d="M220.01 10.0538C218.109 11.2522 216.352 12.7016 214.86 14.3348L208.659 8.66453C210.695 6.43742 213.011 4.53553 215.528 2.94474L220.01 10.0538Z" stroke="#B59666" stroke-width="0.176755" stroke-miterlimit="10" fill="none" transform="matrix(1.00331 0 0 1 -171.529 232.049)"/><path d="M222.443 10.0538C222.206 9.90181 221.965 9.76041 221.725 9.61547L221.226 9.33266 220.728 9.61547C220.488 9.75687 220.247 9.90181 220.01 10.0538L215.528 2.94474C215.843 2.74324 216.164 2.55234 216.486 2.36145 216.645 2.266 216.811 2.17409 216.974 2.08217L217.264 1.91956 217.698 1.69331C217.988 1.5413 218.275 1.38576 218.568 1.25143 218.862 1.11002 219.151 0.968617 219.448 0.848424 220.039 0.593897 220.626 0.36765 221.223 0.123728 221.817 0.36765 222.404 0.597432 222.998 0.848424 223.295 0.968617 223.584 1.11002 223.878 1.25143 224.171 1.38576 224.461 1.5413 224.747 1.69331L225.182 1.91956 225.472 2.08217C225.635 2.17409 225.801 2.266 225.96 2.36145 226.282 2.55234 226.603 2.74324 226.918 2.94474L222.435 10.0538Z" stroke="#B59666" stroke-width="0.176755" stroke-miterlimit="10" fill="none" transform="matrix(1.00331 0 0 1 -171.529 232.049)"/><path d="M211.229 19.7577C210.307 21.7161 209.744 23.8266 209.465 26.0113L201.122 25.0038C201.497 22.0025 202.3 19.0047 203.604 16.2261L211.229 19.7577Z" stroke="#B59666" stroke-width="0.176755" stroke-miterlimit="10" fill="none" transform="matrix(1.00331 0 0 1 -171.529 232.049)"/><path d="M214.86 14.3348C213.372 15.9716 212.127 17.7886 211.229 19.7541L203.604 16.2226C204.884 13.4334 206.634 10.8916 208.659 8.66453L214.86 14.3348Z" stroke="#B59666" stroke-width="0.176755" stroke-miterlimit="10" fill="none" transform="matrix(1.00331 0 0 1 -171.529 232.049)"/><path d="M200.893 33.3395 209.296 33.3395 209.296 41.1804 200.893 41.1804Z" stroke="#B59666" stroke-width="0.176755" stroke-miterlimit="10" fill="none" transform="matrix(1.00331 0 0 1 -171.529 232.049)"/><path d="M209.465 26.0077C209.426 26.2799 209.416 26.5592 209.387 26.8314 209.37 27.1071 209.324 27.3793 209.327 27.6586L209.303 28.4964C209.303 28.6414 209.292 28.7651 209.292 28.9242L209.292 33.336 200.889 33.336 200.889 28.9242 200.9 28.3727 200.932 27.2485C200.932 26.8738 200.985 26.4991 201.013 26.1244 201.048 25.7497 201.069 25.3749 201.119 24.9967L209.462 26.0042Z" stroke="#B59666" stroke-width="0.176755" stroke-miterlimit="10" fill="none" transform="matrix(1.00331 0 0 1 -171.529 232.049)"/><path d="M28.0475 81.7774 22.9675 76.6975C24.5583 75.637 25.9335 76.04 25.9335 76.04 25.9335 73.7457 28.0475 71.6176 28.0475 71.6176 28.0475 71.6176 30.1615 73.7457 30.1615 76.04 30.1615 76.04 31.5366 75.637 33.1274 76.6975L28.0475 81.7774Z" stroke="#B59666" stroke-width="0.176755" stroke-miterlimit="10" fill="none" transform="matrix(1.00331 0 0 1 -171.529 232.049)"/><path d="M92.4393 81.7774 87.3594 76.6975C88.9502 75.637 90.3253 76.04 90.3253 76.04 90.3253 73.7457 92.4393 71.6176 92.4393 71.6176 92.4393 71.6176 94.5533 73.7457 94.5533 76.04 94.5533 76.04 95.9284 75.637 97.5192 76.6975L92.4393 81.7774Z" stroke="#B59666" stroke-width="0.176755" stroke-miterlimit="10" fill="none" transform="matrix(1.00331 0 0 1 -171.529 232.049)"/><path d="M156.835 81.7774 151.755 76.6975C153.346 75.637 154.721 76.04 154.721 76.04 154.721 73.7457 156.835 71.6176 156.835 71.6176 156.835 71.6176 158.949 73.7457 158.949 76.04 158.949 76.04 160.324 75.637 161.915 76.6975L156.835 81.7774Z" stroke="#B59666" stroke-width="0.176755" stroke-miterlimit="10" fill="none" transform="matrix(1.00331 0 0 1 -171.529 232.049)"/><path d="M221.226 81.7774 216.147 76.6975C217.737 75.637 219.113 76.04 219.113 76.04 219.113 73.7457 221.226 71.6176 221.226 71.6176 221.226 71.6176 223.34 73.7457 223.34 76.04 223.34 76.04 224.716 75.637 226.306 76.6975L221.226 81.7774Z" stroke="#B59666" stroke-width="0.176755" stroke-miterlimit="10" fill="none" transform="matrix(1.00331 0 0 1 -171.529 232.049)"/><path d="M154.693 19.3158 159.495 19.3158 159.495 24.1173 154.693 24.1173Z" stroke="#B59666" stroke-width="0.177047" stroke-miterlimit="10" fill="none" transform="matrix(0.708279 -0.70594 0.708279 0.70594 -140.824 349.298)"/><path d="M154.693 26.1074 159.495 26.1074 159.495 30.9089 154.693 30.9089Z" stroke="#B59666" stroke-width="0.177047" stroke-miterlimit="10" fill="none" transform="matrix(0.708279 -0.70594 0.708279 0.70594 -145.63 351.281)"/><path d="M154.693 32.8953 159.495 32.8953 159.495 37.6969 154.693 37.6969Z" stroke="#B59666" stroke-width="0.177047" stroke-miterlimit="10" fill="none" transform="matrix(0.708279 -0.70594 0.708279 0.70594 -150.44 353.268)"/><path d="M219.191 19.3158 223.993 19.3158 223.993 24.1173 219.191 24.1173Z" stroke="#B59666" stroke-width="0.177047" stroke-miterlimit="10" fill="none" transform="matrix(0.708279 -0.70594 0.708279 0.70594 -121.902 394.83)"/><path d="M219.191 26.1074 223.993 26.1074 223.993 30.9089 219.191 30.9089Z" stroke="#B59666" stroke-width="0.177047" stroke-miterlimit="10" fill="none" transform="matrix(0.708279 -0.70594 0.708279 0.70594 -126.708 396.817)"/><path d="M219.191 32.8953 223.993 32.8953 223.993 37.6969 219.191 37.6969Z" stroke="#B59666" stroke-width="0.177047" stroke-miterlimit="10" fill="none" transform="matrix(0.708279 -0.70594 0.708279 0.70594 -131.517 398.8)"/><path d="M90.1948 19.3158 94.9964 19.3158 94.9964 24.1173 90.1948 24.1173Z" stroke="#B59666" stroke-width="0.177047" stroke-miterlimit="10" fill="none" transform="matrix(0.708279 -0.70594 0.708279 0.70594 -159.746 303.766)"/><path d="M90.1948 26.1074 94.9964 26.1074 94.9964 30.9089 90.1948 30.9089Z" stroke="#B59666" stroke-width="0.177047" stroke-miterlimit="10" fill="none" transform="matrix(0.708279 -0.70594 0.708279 0.70594 -164.556 305.749)"/><path d="M90.1948 32.8953 94.9964 32.8953 94.9964 37.6969 90.1948 37.6969Z" stroke="#B59666" stroke-width="0.177047" stroke-miterlimit="10" fill="none" transform="matrix(0.708279 -0.70594 0.708279 0.70594 -169.362 307.736)"/><path d="M25.6931 19.3158 30.4946 19.3158 30.4946 24.1173 25.6931 24.1173Z" stroke="#B59666" stroke-width="0.177047" stroke-miterlimit="10" fill="none" transform="matrix(0.708279 -0.70594 0.708279 0.70594 -178.669 258.234)"/><path d="M25.6931 26.1074 30.4946 26.1074 30.4946 30.9089 25.6931 30.9089Z" stroke="#B59666" stroke-width="0.177047" stroke-miterlimit="10" fill="none" transform="matrix(0.708279 -0.70594 0.708279 0.70594 -183.478 260.217)"/><path d="M25.6931 32.8953 30.4946 32.8953 30.4946 37.6969 25.6931 37.6969Z" stroke="#B59666" stroke-width="0.177047" stroke-miterlimit="10" fill="none" transform="matrix(0.708279 -0.70594 0.708279 0.70594 -188.284 262.204)"/><path d="M0.0883775 63.1192 11.9486 74.9795 23.8124 63.1192" stroke="#B59666" stroke-width="0.176755" stroke-miterlimit="10" fill="none" transform="matrix(1.00331 0 0 1 -171.529 232.049)"/><path d="M32.2861 63.1192 44.1463 74.9795 56.0101 63.1192" stroke="#B59666" stroke-width="0.176755" stroke-miterlimit="10" fill="none" transform="matrix(1.00331 0 0 1 -171.529 232.049)"/><path d="M64.4802 63.1192 76.344 74.9795 88.2043 63.1192" stroke="#B59666" stroke-width="0.176755" stroke-miterlimit="10" fill="none" transform="matrix(1.00331 0 0 1 -171.529 232.049)"/><path d="M96.6779 63.1192 108.538 74.9795 120.402 63.1192" stroke="#B59666" stroke-width="0.176755" stroke-miterlimit="10" fill="none" transform="matrix(1.00331 0 0 1 -171.529 232.049)"/><path d="M128.876 63.1192 140.736 74.9795 152.596 63.1192" stroke="#B59666" stroke-width="0.176755" stroke-miterlimit="10" fill="none" transform="matrix(1.00331 0 0 1 -171.529 232.049)"/><path d="M161.07 63.1192 172.934 74.9795 184.794 63.1192" stroke="#B59666" stroke-width="0.176755" stroke-miterlimit="10" fill="none" transform="matrix(1.00331 0 0 1 -171.529 232.049)"/><path d="M193.267 63.1192 205.128 74.9795 216.991 63.1192" stroke="#B59666" stroke-width="0.176755" stroke-miterlimit="10" fill="none" transform="matrix(1.00331 0 0 1 -171.529 232.049)"/><path d="M225.462 63.1192 237.325 74.9795 249.186 63.1192" stroke="#B59666" stroke-width="0.176755" stroke-miterlimit="10" fill="none" transform="matrix(1.00331 0 0 1 -171.529 232.049)"/><path d="M9.57116 76.0984 14.3727 76.0984 14.3727 80.8999 9.57116 80.8999Z" stroke="#B59666" stroke-width="0.177047" stroke-miterlimit="10" fill="none" transform="matrix(0.708279 -0.70594 0.708279 0.70594 -223.617 263.452)"/><path d="M41.8185 76.0984 46.62 76.0984 46.62 80.8999 41.8185 80.8999Z" stroke="#B59666" stroke-width="0.177047" stroke-miterlimit="10" fill="none" transform="matrix(0.708279 -0.70594 0.708279 0.70594 -214.154 286.218)"/><path d="M74.0694 76.0984 78.8709 76.0984 78.8709 80.8999 74.0694 80.8999Z" stroke="#B59666" stroke-width="0.177047" stroke-miterlimit="10" fill="none" transform="matrix(0.708279 -0.70594 0.708279 0.70594 -204.695 308.987)"/><path d="M106.317 76.0984 111.118 76.0984 111.118 80.8999 106.317 80.8999Z" stroke="#B59666" stroke-width="0.177047" stroke-miterlimit="10" fill="none" transform="matrix(0.708279 -0.70594 0.708279 0.70594 -195.232 331.753)"/><path d="M138.568 76.0984 143.369 76.0984 143.369 80.8999 138.568 80.8999Z" stroke="#B59666" stroke-width="0.177047" stroke-miterlimit="10" fill="none" transform="matrix(0.708279 -0.70594 0.708279 0.70594 -185.769 354.519)"/><path d="M170.819 76.0984 175.62 76.0984 175.62 80.8999 170.819 80.8999Z" stroke="#B59666" stroke-width="0.177047" stroke-miterlimit="10" fill="none" transform="matrix(0.708279 -0.70594 0.708279 0.70594 -176.31 377.285)"/><path d="M203.066 76.0984 207.867 76.0984 207.867 80.8999 203.066 80.8999Z" stroke="#B59666" stroke-width="0.177047" stroke-miterlimit="10" fill="none" transform="matrix(0.708279 -0.70594 0.708279 0.70594 -166.847 400.051)"/><path d="M235.317 76.0984 240.118 76.0984 240.118 80.8999 235.317 80.8999Z" stroke="#B59666" stroke-width="0.177047" stroke-miterlimit="10" fill="none" transform="matrix(0.708279 -0.70594 0.708279 0.70594 -157.388 422.818)"/><path d="M23.8124 63.1192 28.0475 58.8806 32.2861 63.1192" stroke="#B59666" stroke-width="0.176755" stroke-miterlimit="10" fill="none" transform="matrix(1.00331 0 0 1 -171.529 232.049)"/><path d="M56.0101 63.1192 60.2452 58.8806 64.4802 63.1192" stroke="#B59666" stroke-width="0.176755" stroke-miterlimit="10" fill="none" transform="matrix(1.00331 0 0 1 -171.529 232.049)"/><path d="M88.2043 63.1192 92.4393 58.8806 96.6779 63.1192" stroke="#B59666" stroke-width="0.176755" stroke-miterlimit="10" fill="none" transform="matrix(1.00331 0 0 1 -171.529 232.049)"/><path d="M120.402 63.1192 124.637 58.8806 128.876 63.1192" stroke="#B59666" stroke-width="0.176755" stroke-miterlimit="10" fill="none" transform="matrix(1.00331 0 0 1 -171.529 232.049)"/><path d="M152.596 63.1192 156.835 58.8806 161.07 63.1192" stroke="#B59666" stroke-width="0.176755" stroke-miterlimit="10" fill="none" transform="matrix(1.00331 0 0 1 -171.529 232.049)"/><path d="M184.794 63.1192 189.029 58.8806 193.267 63.1192" stroke="#B59666" stroke-width="0.176755" stroke-miterlimit="10" fill="none" transform="matrix(1.00331 0 0 1 -171.529 232.049)"/><path d="M216.991 63.1192 221.226 58.8806 225.462 63.1192" stroke="#B59666" stroke-width="0.176755" stroke-miterlimit="10" fill="none" transform="matrix(1.00331 0 0 1 -171.529 232.049)"/><path d="M249.186 63.1192 253.424 58.8806 257.659 63.1192" stroke="#B59666" stroke-width="0.176755" stroke-miterlimit="10" fill="none" transform="matrix(1.00331 0 0 1 -171.529 232.049)"/><path d="M111.826 21.2C111.904 21.1045 111.988 21.0126 112.073 20.9172 114.109 18.6901 116.421 16.7847 118.942 15.1939 119.257 14.9959 119.578 14.805 119.9 14.6141 120.059 14.5187 120.229 14.4267 120.384 14.3313L120.678 14.1687 121.112 13.9424C121.399 13.7904 121.689 13.6384 121.982 13.5041 122.276 13.3627 122.569 13.2213 122.866 13.0975 123.456 12.843 124.043 12.6168 124.637 12.3764 125.234 12.6203 125.821 12.843 126.412 13.0975 126.705 13.2213 126.998 13.3627 127.292 13.5041 127.585 13.6384 127.872 13.7904 128.165 13.9424L128.593 14.1687 128.886 14.3313C129.049 14.4267 129.215 14.5187 129.378 14.6141 129.699 14.805 130.021 14.9959 130.336 15.1939 132.849 16.7847 135.168 18.6901 137.204 20.9172 137.289 21.0126 137.374 21.1045 137.452 21.2" stroke="#B59666" stroke-width="0.176755" stroke-miterlimit="10" fill="none" transform="matrix(1.00331 0 0 1 -171.529 232.049)"/><path d="M136.501 39.3421C136.49 39.2573 136.483 39.1689 136.48 39.0841 136.451 38.8083 136.441 38.5326 136.402 38.2604 136.126 36.0792 135.56 33.9652 134.638 32.0068 133.74 30.0377 132.496 28.2242 131.007 26.5839 129.519 24.9543 127.758 23.5013 125.86 22.3029 125.623 22.1509 125.379 22.0095 125.143 21.8646L124.641 21.5818 124.146 21.8646C123.902 22.0095 123.665 22.1509 123.428 22.3029 121.523 23.4978 119.769 24.9543 118.274 26.5839 116.793 28.2242 115.545 30.0413 114.643 32.0068 113.724 33.9617 113.159 36.0792 112.879 38.2604 112.844 38.5326 112.833 38.8083 112.805 39.0841 112.798 39.1689 112.794 39.2573 112.784 39.3421" stroke="#B59666" stroke-width="0.176755" stroke-miterlimit="10" fill="none" transform="matrix(1.00331 0 0 1 -171.529 232.049)"/><path d="M47.4304 21.2C47.5082 21.1045 47.593 21.0126 47.6779 20.9172 49.7141 18.6901 52.0261 16.7847 54.5466 15.1939 54.8612 14.9959 55.1829 14.805 55.5046 14.6141 55.6637 14.5187 55.8334 14.4267 55.9889 14.3313L56.2823 14.1687 56.7171 13.9424C57.0035 13.7904 57.2934 13.6384 57.5868 13.5041 57.8802 13.3627 58.1736 13.2213 58.4705 13.0975 59.0609 12.843 59.6477 12.6168 60.2416 12.3764 60.8391 12.6203 61.4259 12.843 62.0162 13.0975 62.3097 13.2213 62.6031 13.3627 62.8965 13.5041 63.1899 13.6384 63.4762 13.7904 63.7696 13.9424L64.1974 14.1687 64.4908 14.3313C64.6534 14.4267 64.8196 14.5187 64.9822 14.6141 65.3039 14.805 65.6256 14.9959 65.9402 15.1939 68.4537 16.7847 70.7727 18.6901 72.8089 20.9172 72.8937 21.0126 72.9786 21.1045 73.0564 21.2" stroke="#B59666" stroke-width="0.176755" stroke-miterlimit="10" fill="none" transform="matrix(1.00331 0 0 1 -171.529 232.049)"/><path d="M72.1054 39.3421C72.0948 39.2573 72.0877 39.1689 72.0842 39.0841 72.0559 38.8083 72.0453 38.5326 72.0064 38.2604 71.7307 36.0792 71.1651 33.9652 70.2424 32.0068 69.3445 30.0377 68.1002 28.2242 66.6119 26.5839 65.1236 24.9543 63.3631 23.5013 61.4648 22.3029 61.2279 22.1509 60.984 22.0095 60.7471 21.8646L60.2452 21.5818 59.7502 21.8646C59.5063 22.0095 59.2695 22.1509 59.0326 22.3029 57.1272 23.4978 55.3738 24.9543 53.8784 26.5839 52.3972 28.2242 51.1493 30.0413 50.2479 32.0068 49.3288 33.9617 48.7632 36.0792 48.4839 38.2604 48.4485 38.5326 48.4379 38.8083 48.4096 39.0841 48.4026 39.1689 48.399 39.2573 48.3884 39.3421" stroke="#B59666" stroke-width="0.176755" stroke-miterlimit="10" fill="none" transform="matrix(1.00331 0 0 1 -171.529 232.049)"/><path d="M176.218 21.2C176.295 21.1045 176.38 21.0126 176.465 20.9172 178.501 18.6901 180.813 16.7847 183.334 15.1939 183.648 14.9959 183.97 14.805 184.292 14.6141 184.451 14.5187 184.621 14.4267 184.776 14.3313L185.07 14.1687 185.504 13.9424C185.791 13.7904 186.081 13.6384 186.374 13.5041 186.667 13.3627 186.961 13.2213 187.258 13.0975 187.848 12.843 188.435 12.6168 189.029 12.3764 189.626 12.6203 190.213 12.843 190.803 13.0975 191.097 13.2213 191.39 13.3627 191.684 13.5041 191.977 13.6384 192.263 13.7904 192.557 13.9424L192.985 14.1687 193.278 14.3313C193.441 14.4267 193.607 14.5187 193.769 14.6141 194.091 14.805 194.413 14.9959 194.727 15.1939 197.241 16.7847 199.56 18.6901 201.596 20.9172 201.681 21.0126 201.766 21.1045 201.844 21.2" stroke="#B59666" stroke-width="0.176755" stroke-miterlimit="10" fill="none" transform="matrix(1.00331 0 0 1 -171.529 232.049)"/><path d="M200.889 39.3421C200.878 39.2573 200.871 39.1689 200.868 39.0841 200.84 38.8083 200.829 38.5326 200.79 38.2604 200.514 36.0792 199.949 33.9652 199.026 32.0068 198.128 30.0377 196.884 28.2242 195.396 26.5839 193.907 24.9543 192.147 23.5013 190.248 22.3029 190.012 22.1509 189.768 22.0095 189.531 21.8646L189.029 21.5818 188.534 21.8646C188.29 22.0095 188.053 22.1509 187.816 22.3029 185.911 23.4978 184.157 24.9543 182.662 26.5839 181.181 28.2242 179.933 30.0413 179.032 32.0068 178.112 33.9617 177.547 36.0792 177.268 38.2604 177.232 38.5326 177.222 38.8083 177.193 39.0841 177.186 39.1689 177.183 39.2573 177.172 39.3421" stroke="#B59666" stroke-width="0.176755" stroke-miterlimit="10" fill="none" transform="matrix(1.00331 0 0 1 -171.529 232.049)"/><path d="M60.2416 21.5818 60.2416 12.3764" stroke="#B59666" stroke-width="0.176755" stroke-miterlimit="10" fill="none" transform="matrix(1.00331 0 0 1 -171.529 232.049)"/><path d="M124.637 21.5818 124.637 12.3764" stroke="#B59666" stroke-width="0.176755" stroke-miterlimit="10" fill="none" transform="matrix(1.00331 0 0 1 -171.529 232.049)"/><path d="M189.032 21.5818 189.032 12.3764" stroke="#B59666" stroke-width="0.176755" stroke-miterlimit="10" fill="none" transform="matrix(1.00331 0 0 1 -171.529 232.049)"/><path d="M122.442 6.60031 127.244 6.60031 127.244 11.4018 122.442 11.4018Z" stroke="#B59666" stroke-width="0.177047" stroke-miterlimit="10" fill="none" transform="matrix(0.708279 -0.70594 0.708279 0.70594 -141.278 322.813)"/><path d="M138.568 50.3805 143.369 50.3805 143.369 55.182 138.568 55.182Z" stroke="#B59666" stroke-width="0.177047" stroke-miterlimit="10" fill="none" transform="matrix(0.708279 -0.70594 0.708279 0.70594 -167.556 346.997)"/><path d="M170.819 50.3805 175.62 50.3805 175.62 55.182 170.819 55.182Z" stroke="#B59666" stroke-width="0.177047" stroke-miterlimit="10" fill="none" transform="matrix(0.708279 -0.70594 0.708279 0.70594 -158.094 369.763)"/><path d="M203.066 50.3805 207.867 50.3805 207.867 55.182 203.066 55.182Z" stroke="#B59666" stroke-width="0.177047" stroke-miterlimit="10" fill="none" transform="matrix(0.708279 -0.70594 0.708279 0.70594 -148.634 392.529)"/><path d="M235.317 50.3805 240.118 50.3805 240.118 55.182 235.317 55.182Z" stroke="#B59666" stroke-width="0.177047" stroke-miterlimit="10" fill="none" transform="matrix(0.708279 -0.70594 0.708279 0.70594 -139.171 415.295)"/><path d="M267.568 50.3805 272.369 50.3805 272.369 55.182 267.568 55.182Z" stroke="#B59666" stroke-width="0.177047" stroke-miterlimit="10" fill="none" transform="matrix(0.708279 -0.70594 0.708279 0.70594 -129.708 438.064)"/><path d="M299.815 50.3805 304.617 50.3805 304.617 55.182 299.815 55.182Z" stroke="#B59666" stroke-width="0.177047" stroke-miterlimit="10" fill="none" transform="matrix(0.708279 -0.70594 0.708279 0.70594 -120.249 460.83)"/><path d="M332.066 50.3805 336.867 50.3805 336.867 55.182 332.066 55.182Z" stroke="#B59666" stroke-width="0.177047" stroke-miterlimit="10" fill="none" transform="matrix(0.708279 -0.70594 0.708279 0.70594 -110.786 483.596)"/><path d="M364.313 50.3805 369.115 50.3805 369.115 55.182 364.313 55.182Z" stroke="#B59666" stroke-width="0.177047" stroke-miterlimit="10" fill="none" transform="matrix(0.708279 -0.70594 0.708279 0.70594 -101.327 506.362)"/><path d="M396.564 50.3805 401.366 50.3805 401.366 55.182 396.564 55.182Z" stroke="#B59666" stroke-width="0.177047" stroke-miterlimit="10" fill="none" transform="matrix(0.708279 -0.70594 0.708279 0.70594 -91.864 529.129)"/><path d="M428.815 50.3805 433.617 50.3805 433.617 55.182 428.815 55.182Z" stroke="#B59666" stroke-width="0.177047" stroke-miterlimit="10" fill="none" transform="matrix(0.708279 -0.70594 0.708279 0.70594 -82.4047 551.895)"/><path d="M461.062 50.3805 465.864 50.3805 465.864 55.182 461.062 55.182Z" stroke="#B59666" stroke-width="0.177047" stroke-miterlimit="10" fill="none" transform="matrix(0.708279 -0.70594 0.708279 0.70594 -72.9418 574.661)"/><path d="M493.313 50.3805 498.115 50.3805 498.115 55.182 493.313 55.182Z" stroke="#B59666" stroke-width="0.177047" stroke-miterlimit="10" fill="none" transform="matrix(0.708279 -0.70594 0.708279 0.70594 -63.4825 597.427)"/><path d="M106.317 50.3805 111.118 50.3805 111.118 55.182 106.317 55.182Z" stroke="#B59666" stroke-width="0.177047" stroke-miterlimit="10" fill="none" transform="matrix(0.708279 -0.70594 0.708279 0.70594 -177.016 324.231)"/><path d="M74.0694 50.3805 78.8709 50.3805 78.8709 55.182 74.0694 55.182Z" stroke="#B59666" stroke-width="0.177047" stroke-miterlimit="10" fill="none" transform="matrix(0.708279 -0.70594 0.708279 0.70594 -186.479 301.465)"/><path d="M41.8185 50.3805 46.62 50.3805 46.62 55.182 41.8185 55.182Z" stroke="#B59666" stroke-width="0.177047" stroke-miterlimit="10" fill="none" transform="matrix(0.708279 -0.70594 0.708279 0.70594 -195.938 278.699)"/><path d="M9.57116 50.3805 14.3727 50.3805 14.3727 55.182 9.57116 55.182Z" stroke="#B59666" stroke-width="0.177047" stroke-miterlimit="10" fill="none" transform="matrix(0.708279 -0.70594 0.708279 0.70594 -205.401 255.933)"/><path d="M57.9404 6.60031 62.7419 6.60031 62.7419 11.4018 57.9404 11.4018Z" stroke="#B59666" stroke-width="0.177047" stroke-miterlimit="10" fill="none" transform="matrix(0.708279 -0.70594 0.708279 0.70594 -160.2 277.277)"/><path d="M186.94 6.60031 191.742 6.60031 191.742 11.4018 186.94 11.4018Z" stroke="#B59666" stroke-width="0.177047" stroke-miterlimit="10" fill="none" transform="matrix(0.708279 -0.70594 0.708279 0.70594 -122.356 368.345)"/><path d="M240.609 21.2C240.687 21.1045 240.772 21.0126 240.857 20.9172 242.893 18.6901 245.205 16.7847 247.726 15.1939 248.04 14.9959 248.362 14.805 248.684 14.6141 248.843 14.5187 249.012 14.4267 249.168 14.3313L249.461 14.1687 249.896 13.9424C250.182 13.7904 250.472 13.6384 250.766 13.5041 251.059 13.3627 251.353 13.2213 251.65 13.0975 252.24 12.843 252.827 12.6168 253.421 12.3764 254.018 12.6203 254.605 12.843 255.195 13.0975 255.489 13.2213 255.782 13.3627 256.076 13.5041 256.369 13.6384 256.655 13.7904 256.949 13.9424L257.376 14.1687 257.67 14.3313C257.832 14.4267 257.999 14.5187 258.161 14.6141 258.483 14.805 258.805 14.9959 259.119 15.1939 261.633 16.7847 263.952 18.6901 265.988 20.9172 266.073 21.0126 266.158 21.1045 266.235 21.2" stroke="#B59666" stroke-width="0.176755" stroke-miterlimit="10" fill="none" transform="matrix(1.00331 0 0 1 -171.529 232.049)"/><path d="M265.284 39.3421C265.274 39.2573 265.267 39.1689 265.263 39.0841 265.235 38.8083 265.224 38.5326 265.185 38.2604 264.91 36.0792 264.344 33.9652 263.421 32.0068 262.524 30.0377 261.279 28.2242 259.791 26.5839 258.303 24.9543 256.542 23.5013 254.644 22.3029 254.407 22.1509 254.163 22.0095 253.926 21.8646L253.424 21.5818 252.929 21.8646C252.685 22.0095 252.448 22.1509 252.212 22.3029 250.306 23.4978 248.553 24.9543 247.057 26.5839 245.576 28.2242 244.328 30.0413 243.427 32.0068 242.508 33.9617 241.942 36.0792 241.663 38.2604 241.628 38.5326 241.617 38.8083 241.589 39.0841 241.582 39.1689 241.578 39.2573 241.567 39.3421" stroke="#B59666" stroke-width="0.176755" stroke-miterlimit="10" fill="none" transform="matrix(1.00331 0 0 1 -171.529 232.049)"/><path d="M253.424 21.5818 253.424 12.3764" stroke="#B59666" stroke-width="0.176755" stroke-miterlimit="10" fill="none" transform="matrix(1.00331 0 0 1 -171.529 232.049)"/><path d="M251.439 6.60031 256.24 6.60031 256.24 11.4018 251.439 11.4018Z" stroke="#B59666" stroke-width="0.177047" stroke-miterlimit="10" fill="none" transform="matrix(0.708279 -0.70594 0.708279 0.70594 -103.434 413.877)"/><path d="M450.838 63.1192 450.838 55.9606 458.463 48.3354 458.463 41.1804 449.99 41.1804 449.99 44.8286 446.6 48.2152 443.213 44.8286 443.213 41.1804 434.739 41.1804 434.739 48.3354 442.365 55.9606 442.365 63.1192" stroke="#B59666" stroke-width="0.176755" stroke-miterlimit="10" fill="none" transform="matrix(1.00331 0 0 1 -171.529 232.049)"/><path d="M483.032 63.1192 483.032 55.9606 490.658 48.3354 490.658 41.1804 482.188 41.1804 482.188 44.8286 478.797 48.2152 475.407 44.8286 475.407 41.1804 466.937 41.1804 466.937 48.3354 474.562 55.9606 474.562 63.1192" stroke="#B59666" stroke-width="0.176755" stroke-miterlimit="10" fill="none" transform="matrix(1.00331 0 0 1 -171.529 232.049)"/><path d="M418.641 63.1192 418.641 55.9606 426.266 48.3354 426.266 41.1804 417.792 41.1804 417.792 44.8286 414.406 48.2152 411.015 44.8286 411.015 41.1804 402.542 41.1804 402.542 48.3354 410.167 55.9606 410.167 63.1192" stroke="#B59666" stroke-width="0.176755" stroke-miterlimit="10" fill="none" transform="matrix(1.00331 0 0 1 -171.529 232.049)"/><path d="M322.051 63.1192 322.051 55.9606 329.676 48.3354 329.676 41.1804 321.206 41.1804 321.206 44.8286 317.816 48.2152 314.426 44.8286 314.426 41.1804 305.952 41.1804 305.952 48.3354 313.581 55.9606 313.581 63.1192" stroke="#B59666" stroke-width="0.176755" stroke-miterlimit="10" fill="none" transform="matrix(1.00331 0 0 1 -171.529 232.049)"/><path d="M386.446 63.1192 386.446 55.9606 394.072 48.3354 394.072 41.1804 385.598 41.1804 385.598 44.8286 382.208 48.2152 378.818 44.8286 378.818 41.1804 370.348 41.1804 370.348 48.3354 377.973 55.9606 377.973 63.1192" stroke="#B59666" stroke-width="0.176755" stroke-miterlimit="10" fill="none" transform="matrix(1.00331 0 0 1 -171.529 232.049)"/><path d="M354.249 63.1192 354.249 55.9606 361.874 48.3354 361.874 41.1804 353.4 41.1804 353.4 44.8286 350.014 48.2152 346.624 44.8286 346.624 41.1804 338.15 41.1804 338.15 48.3354 345.775 55.9606 345.775 63.1192" stroke="#B59666" stroke-width="0.176755" stroke-miterlimit="10" fill="none" transform="matrix(1.00331 0 0 1 -171.529 232.049)"/><path d="M289.857 63.1192 289.857 55.9606 297.482 48.3354 297.482 41.1804 289.008 41.1804 289.008 44.8286 285.618 48.2152 282.232 44.8286 282.232 41.1804 273.758 41.1804 273.758 48.3354 281.383 55.9606 281.383 63.1192" stroke="#B59666" stroke-width="0.176755" stroke-miterlimit="10" fill="none" transform="matrix(1.00331 0 0 1 -171.529 232.049)"/><path d="M418.641 63.1192 427.114 71.5928 427.114 59.471 430.504 56.0808 433.891 59.471 433.891 71.5928 442.365 63.1192 442.365 55.9606 434.739 48.3354 434.739 41.1804 426.266 41.1804 426.266 48.3354 418.641 55.9606 418.641 63.1192Z" stroke="#B59666" stroke-width="0.176755" stroke-miterlimit="10" fill="none" transform="matrix(1.00331 0 0 1 -171.529 232.049)"/><path d="M386.446 63.1192 394.917 71.5928 394.917 59.471 398.307 56.0808 401.697 59.471 401.697 71.5928 410.167 63.1192 410.167 55.9606 402.542 48.3354 402.542 41.1804 394.072 41.1804 394.072 48.3354 386.446 55.9606 386.446 63.1192Z" stroke="#B59666" stroke-width="0.176755" stroke-miterlimit="10" fill="none" transform="matrix(1.00331 0 0 1 -171.529 232.049)"/><path d="M483.032 63.1192 491.506 71.5928 491.506 59.471 494.896 56.0808 498.286 59.471 498.286 71.5928 506.756 63.1192 506.756 55.9606 499.131 48.3354 499.131 41.1804 490.658 41.1804 490.658 48.3354 483.032 55.9606 483.032 63.1192Z" stroke="#B59666" stroke-width="0.176755" stroke-miterlimit="10" fill="none" transform="matrix(1.00331 0 0 1 -171.529 232.049)"/><path d="M450.838 63.1192 459.312 71.5928 459.312 59.471 462.699 56.0808 466.089 59.471 466.089 71.5928 474.562 63.1192 474.562 55.9606 466.937 48.3354 466.937 41.1804 458.463 41.1804 458.463 48.3354 450.838 55.9606 450.838 63.1192Z" stroke="#B59666" stroke-width="0.176755" stroke-miterlimit="10" fill="none" transform="matrix(1.00331 0 0 1 -171.529 232.049)"/><path d="M289.857 63.1192 298.327 71.5928 298.327 59.471 301.717 56.0808 305.107 59.471 305.107 71.5928 313.581 63.1192 313.581 55.9606 305.952 48.3354 305.952 41.1804 297.482 41.1804 297.482 48.3354 289.857 55.9606 289.857 63.1192Z" stroke="#B59666" stroke-width="0.176755" stroke-miterlimit="10" fill="none" transform="matrix(1.00331 0 0 1 -171.529 232.049)"/><path d="M257.659 63.1192 266.133 71.5928 266.133 59.471 269.519 56.0808 272.91 59.471 272.91 71.5928 281.383 63.1192 281.383 55.9606 273.758 48.3354 273.758 41.1804 265.284 41.1804 265.284 48.3354 257.659 55.9606 257.659 63.1192Z" stroke="#B59666" stroke-width="0.176755" stroke-miterlimit="10" fill="none" transform="matrix(1.00331 0 0 1 -171.529 232.049)"/><path d="M354.249 63.1192 362.722 71.5928 362.722 59.471 366.109 56.0808 369.499 59.471 369.499 71.5928 377.973 63.1192 377.973 55.9606 370.348 48.3354 370.348 41.1804 361.874 41.1804 361.874 48.3354 354.249 55.9606 354.249 63.1192Z" stroke="#B59666" stroke-width="0.176755" stroke-miterlimit="10" fill="none" transform="matrix(1.00331 0 0 1 -171.529 232.049)"/><path d="M322.051 63.1192 330.525 71.5928 330.525 59.471 333.915 56.0808 337.301 59.471 337.301 71.5928 345.775 63.1192 345.775 55.9606 338.15 48.3354 338.15 41.1804 329.676 41.1804 329.676 48.3354 322.051 55.9606 322.051 63.1192Z" stroke="#B59666" stroke-width="0.176755" stroke-miterlimit="10" fill="none" transform="matrix(1.00331 0 0 1 -171.529 232.049)"/><path d="M297.578 33.3112 305.98 33.3112 305.98 41.1521 297.578 41.1521Z" stroke="#B59666" stroke-width="0.176755" stroke-miterlimit="10" fill="none" transform="matrix(1.00331 0 0 1 -171.529 232.049)"/><path d="M297.408 25.983C297.129 23.8018 296.567 21.6878 295.644 19.7294L303.269 16.1978C304.574 18.9764 305.376 21.9742 305.751 24.9755L297.408 25.983Z" stroke="#B59666" stroke-width="0.176755" stroke-miterlimit="10" fill="none" transform="matrix(1.00331 0 0 1 -171.529 232.049)"/><path d="M297.578 33.3112 297.578 28.8994C297.578 28.7404 297.57 28.6131 297.567 28.4717L297.542 27.6339C297.542 27.3546 297.5 27.0824 297.482 26.8067 297.454 26.5309 297.443 26.2552 297.404 25.983L305.747 24.9755C305.797 25.3502 305.818 25.7249 305.853 26.1032 305.878 26.4779 305.931 26.8561 305.935 27.2273L305.966 28.3515 305.977 28.903 305.977 33.3148 297.574 33.3148Z" stroke="#B59666" stroke-width="0.176755" stroke-miterlimit="10" fill="none" transform="matrix(1.00331 0 0 1 -171.529 232.049)"/><path d="M292.01 14.3101C290.518 12.6769 288.761 11.2239 286.859 10.0291L291.342 2.91999C293.859 4.50725 296.174 6.41267 298.21 8.63978L292.01 14.3101Z" stroke="#B59666" stroke-width="0.176755" stroke-miterlimit="10" fill="none" transform="matrix(1.00331 0 0 1 -171.529 232.049)"/><path d="M295.644 19.7294C294.746 17.7603 293.498 15.9468 292.013 14.3101L298.214 8.63978C300.24 10.8669 301.993 13.4122 303.269 16.2014L295.644 19.7329Z" stroke="#B59666" stroke-width="0.176755" stroke-miterlimit="10" fill="none" transform="matrix(1.00331 0 0 1 -171.529 232.049)"/><path d="M284.431 10.0255C282.529 11.2239 280.772 12.6733 279.28 14.3065L273.079 8.63625C275.116 6.40913 277.431 4.50725 279.948 2.91646L284.431 10.0255Z" stroke="#B59666" stroke-width="0.176755" stroke-miterlimit="10" fill="none" transform="matrix(1.00331 0 0 1 -171.529 232.049)"/><path d="M286.859 10.0255C286.622 9.87353 286.382 9.73213 286.142 9.58719L285.643 9.30438 285.145 9.58719C284.904 9.72859 284.664 9.87353 284.427 10.0255L279.944 2.91646C280.259 2.71496 280.581 2.52406 280.902 2.33317 281.062 2.23772 281.228 2.14581 281.39 2.05389L281.68 1.89128 282.115 1.66503C282.405 1.51302 282.691 1.35748 282.985 1.22314 283.278 1.08174 283.568 0.940336 283.865 0.820143 284.455 0.565616 285.042 0.33937 285.64 0.0954477 286.233 0.33937 286.82 0.569151 287.414 0.820143 287.711 0.940336 288.001 1.08174 288.294 1.22314 288.588 1.35748 288.878 1.51302 289.164 1.66503L289.599 1.89128 289.889 2.05389C290.051 2.14581 290.217 2.23772 290.377 2.33317 290.698 2.52406 291.02 2.71496 291.335 2.91646L286.852 10.0255Z" stroke="#B59666" stroke-width="0.176755" stroke-miterlimit="10" fill="none" transform="matrix(1.00331 0 0 1 -171.529 232.049)"/><path d="M275.649 19.7294C274.727 21.6878 274.165 23.7983 273.885 25.983L265.542 24.9755C265.917 21.9742 266.72 18.9764 268.024 16.1978L275.649 19.7294Z" stroke="#B59666" stroke-width="0.176755" stroke-miterlimit="10" fill="none" transform="matrix(1.00331 0 0 1 -171.529 232.049)"/><path d="M279.28 14.3101C277.792 15.9468 276.547 17.7639 275.649 19.7294L268.024 16.1978C269.304 13.4086 271.054 10.8669 273.079 8.63978L279.28 14.3101Z" stroke="#B59666" stroke-width="0.176755" stroke-miterlimit="10" fill="none" transform="matrix(1.00331 0 0 1 -171.529 232.049)"/><path d="M265.313 33.3112 273.716 33.3112 273.716 41.1521 265.313 41.1521Z" stroke="#B59666" stroke-width="0.176755" stroke-miterlimit="10" fill="none" transform="matrix(1.00331 0 0 1 -171.529 232.049)"/><path d="M273.885 25.983C273.846 26.2552 273.836 26.5345 273.808 26.8067 273.79 27.0824 273.744 27.3546 273.747 27.6339L273.723 28.4717C273.723 28.6166 273.712 28.7404 273.712 28.8994L273.712 33.3112 265.309 33.3112 265.309 28.8994 265.32 28.348 265.352 27.2238C265.352 26.8491 265.405 26.4744 265.433 26.0996 265.468 25.7249 265.489 25.3502 265.539 24.9719L273.882 25.9794Z" stroke="#B59666" stroke-width="0.176755" stroke-miterlimit="10" fill="none" transform="matrix(1.00331 0 0 1 -171.529 232.049)"/><path d="M361.945 33.3395 370.348 33.3395 370.348 41.1804 361.945 41.1804Z" stroke="#B59666" stroke-width="0.176755" stroke-miterlimit="10" fill="none" transform="matrix(1.00331 0 0 1 -171.529 232.049)"/><path d="M361.771 26.0077C361.492 23.8266 360.93 21.7126 360.007 19.7541L367.633 16.2226C368.937 19.0012 369.74 21.9989 370.114 25.0002L361.771 26.0077Z" stroke="#B59666" stroke-width="0.176755" stroke-miterlimit="10" fill="none" transform="matrix(1.00331 0 0 1 -171.529 232.049)"/><path d="M361.945 33.3395 361.945 28.9277C361.945 28.7686 361.938 28.6414 361.934 28.5L361.909 27.6621C361.909 27.3829 361.867 27.1107 361.849 26.8349 361.821 26.5592 361.81 26.2835 361.771 26.0113L370.114 25.0038C370.164 25.3785 370.185 25.7532 370.22 26.1315 370.245 26.5062 370.298 26.8844 370.302 27.2556L370.333 28.3798 370.344 28.9312 370.344 33.3431 361.941 33.3431Z" stroke="#B59666" stroke-width="0.176755" stroke-miterlimit="10" fill="none" transform="matrix(1.00331 0 0 1 -171.529 232.049)"/><path d="M356.377 14.3348C354.885 12.7016 353.128 11.2487 351.226 10.0538L355.709 2.94474C358.226 4.532 360.541 6.43742 362.577 8.66453L356.377 14.3348Z" stroke="#B59666" stroke-width="0.176755" stroke-miterlimit="10" fill="none" transform="matrix(1.00331 0 0 1 -171.529 232.049)"/><path d="M360.011 19.7577C359.113 17.7886 357.865 15.9751 356.38 14.3384L362.581 8.66806C364.607 10.8952 366.36 13.4404 367.636 16.2296L360.011 19.7612Z" stroke="#B59666" stroke-width="0.176755" stroke-miterlimit="10" fill="none" transform="matrix(1.00331 0 0 1 -171.529 232.049)"/><path d="M348.798 10.0538C346.896 11.2522 345.139 12.7016 343.647 14.3348L337.446 8.66453C339.483 6.43742 341.798 4.53553 344.315 2.94474L348.798 10.0538Z" stroke="#B59666" stroke-width="0.176755" stroke-miterlimit="10" fill="none" transform="matrix(1.00331 0 0 1 -171.529 232.049)"/><path d="M351.226 10.0538C350.989 9.90181 350.749 9.76041 350.509 9.61547L350.01 9.33266 349.512 9.61547C349.271 9.75687 349.031 9.90181 348.794 10.0538L344.312 2.94474C344.626 2.74324 344.948 2.55234 345.27 2.36145 345.429 2.266 345.595 2.17409 345.757 2.08217L346.047 1.91956 346.482 1.69331C346.772 1.5413 347.058 1.38576 347.352 1.25143 347.645 1.11002 347.935 0.968617 348.232 0.848424 348.822 0.593897 349.409 0.36765 350.007 0.123728 350.601 0.36765 351.187 0.597432 351.781 0.848424 352.078 0.968617 352.368 1.11002 352.661 1.25143 352.955 1.38576 353.245 1.5413 353.531 1.69331L353.966 1.91956 354.256 2.08217C354.418 2.17409 354.585 2.266 354.744 2.36145 355.065 2.55234 355.387 2.74324 355.702 2.94474L351.219 10.0538Z" stroke="#B59666" stroke-width="0.176755" stroke-miterlimit="10" fill="none" transform="matrix(1.00331 0 0 1 -171.529 232.049)"/><path d="M340.013 19.7577C339.09 21.7161 338.528 23.8266 338.249 26.0113L329.906 25.0038C330.281 22.0025 331.083 19.0047 332.388 16.2261L340.013 19.7577Z" stroke="#B59666" stroke-width="0.176755" stroke-miterlimit="10" fill="none" transform="matrix(1.00331 0 0 1 -171.529 232.049)"/><path d="M343.647 14.3348C342.159 15.9716 340.914 17.7886 340.016 19.7541L332.391 16.2226C333.671 13.4334 335.421 10.8916 337.446 8.66453L343.647 14.3348Z" stroke="#B59666" stroke-width="0.176755" stroke-miterlimit="10" fill="none" transform="matrix(1.00331 0 0 1 -171.529 232.049)"/><path d="M329.676 33.3395 338.079 33.3395 338.079 41.1804 329.676 41.1804Z" stroke="#B59666" stroke-width="0.176755" stroke-miterlimit="10" fill="none" transform="matrix(1.00331 0 0 1 -171.529 232.049)"/><path d="M338.252 26.0077C338.214 26.2799 338.203 26.5592 338.175 26.8314 338.157 27.1071 338.111 27.3793 338.115 27.6586L338.09 28.4964C338.09 28.6414 338.079 28.7651 338.079 28.9242L338.079 33.336 329.676 33.336 329.676 28.9242 329.687 28.3727 329.719 27.2485C329.719 26.8738 329.772 26.4991 329.8 26.1244 329.835 25.7497 329.857 25.3749 329.906 24.9967L338.249 26.0042Z" stroke="#B59666" stroke-width="0.176755" stroke-miterlimit="10" fill="none" transform="matrix(1.00331 0 0 1 -171.529 232.049)"/><path d="M426.336 33.3395 434.739 33.3395 434.739 41.1804 426.336 41.1804Z" stroke="#B59666" stroke-width="0.176755" stroke-miterlimit="10" fill="none" transform="matrix(1.00331 0 0 1 -171.529 232.049)"/><path d="M426.167 26.0077C425.888 23.8266 425.325 21.7126 424.403 19.7541L432.028 16.2226C433.332 19.0012 434.135 21.9989 434.51 25.0002L426.167 26.0077Z" stroke="#B59666" stroke-width="0.176755" stroke-miterlimit="10" fill="none" transform="matrix(1.00331 0 0 1 -171.529 232.049)"/><path d="M426.336 33.3395 426.336 28.9277C426.336 28.7686 426.329 28.6414 426.326 28.5L426.301 27.6621C426.301 27.3829 426.259 27.1107 426.241 26.8349 426.213 26.5592 426.202 26.2835 426.163 26.0113L434.506 25.0038C434.556 25.3785 434.577 25.7532 434.612 26.1315 434.637 26.5062 434.69 26.8844 434.693 27.2556L434.725 28.3798 434.736 28.9312 434.736 33.3431 426.333 33.3431Z" stroke="#B59666" stroke-width="0.176755" stroke-miterlimit="10" fill="none" transform="matrix(1.00331 0 0 1 -171.529 232.049)"/><path d="M420.769 14.3348C419.277 12.7016 417.52 11.2487 415.618 10.0538L420.101 2.94474C422.618 4.532 424.933 6.43742 426.969 8.66453L420.769 14.3348Z" stroke="#B59666" stroke-width="0.176755" stroke-miterlimit="10" fill="none" transform="matrix(1.00331 0 0 1 -171.529 232.049)"/><path d="M424.403 19.7577C423.505 17.7886 422.257 15.9751 420.772 14.3384L426.973 8.66806C428.998 10.8952 430.752 13.4404 432.028 16.2296L424.403 19.7612Z" stroke="#B59666" stroke-width="0.176755" stroke-miterlimit="10" fill="none" transform="matrix(1.00331 0 0 1 -171.529 232.049)"/><path d="M413.189 10.0538C411.288 11.2522 409.531 12.7016 408.039 14.3348L401.838 8.66453C403.874 6.43742 406.19 4.53553 408.707 2.94474L413.189 10.0538Z" stroke="#B59666" stroke-width="0.176755" stroke-miterlimit="10" fill="none" transform="matrix(1.00331 0 0 1 -171.529 232.049)"/><path d="M415.618 10.0538C415.381 9.90181 415.141 9.76041 414.9 9.61547L414.402 9.33266 413.904 9.61547C413.663 9.75687 413.423 9.90181 413.186 10.0538L408.703 2.94474C409.018 2.74324 409.34 2.55234 409.661 2.36145 409.82 2.266 409.987 2.17409 410.149 2.08217L410.439 1.91956 410.874 1.69331C411.164 1.5413 411.45 1.38576 411.744 1.25143 412.037 1.11002 412.327 0.968617 412.624 0.848424 413.214 0.593897 413.801 0.36765 414.398 0.123728 414.992 0.36765 415.579 0.597432 416.173 0.848424 416.47 0.968617 416.76 1.11002 417.053 1.25143 417.347 1.38576 417.637 1.5413 417.923 1.69331L418.358 1.91956 418.648 2.08217C418.81 2.17409 418.976 2.266 419.135 2.36145 419.457 2.55234 419.779 2.74324 420.093 2.94474L415.611 10.0538Z" stroke="#B59666" stroke-width="0.176755" stroke-miterlimit="10" fill="none" transform="matrix(1.00331 0 0 1 -171.529 232.049)"/><path d="M404.408 19.7577C403.486 21.7161 402.924 23.8266 402.644 26.0113L394.301 25.0038C394.676 22.0025 395.479 19.0047 396.783 16.2261L404.408 19.7577Z" stroke="#B59666" stroke-width="0.176755" stroke-miterlimit="10" fill="none" transform="matrix(1.00331 0 0 1 -171.529 232.049)"/><path d="M408.039 14.3348C406.551 15.9716 405.306 17.7886 404.408 19.7541L396.783 16.2226C398.063 13.4334 399.813 10.8916 401.838 8.66453L408.039 14.3348Z" stroke="#B59666" stroke-width="0.176755" stroke-miterlimit="10" fill="none" transform="matrix(1.00331 0 0 1 -171.529 232.049)"/><path d="M394.072 33.3395 402.475 33.3395 402.475 41.1804 394.072 41.1804Z" stroke="#B59666" stroke-width="0.176755" stroke-miterlimit="10" fill="none" transform="matrix(1.00331 0 0 1 -171.529 232.049)"/><path d="M402.644 26.0077C402.605 26.2799 402.595 26.5592 402.566 26.8314 402.549 27.1071 402.503 27.3793 402.506 27.6586L402.482 28.4964C402.482 28.6414 402.471 28.7651 402.471 28.9242L402.471 33.336 394.068 33.336 394.068 28.9242 394.079 28.3727 394.111 27.2485C394.111 26.8738 394.164 26.4991 394.192 26.1244 394.227 25.7497 394.248 25.3749 394.298 24.9967L402.641 26.0042Z" stroke="#B59666" stroke-width="0.176755" stroke-miterlimit="10" fill="none" transform="matrix(1.00331 0 0 1 -171.529 232.049)"/><path d="M490.728 33.3395 499.131 33.3395 499.131 41.1804 490.728 41.1804Z" stroke="#B59666" stroke-width="0.176755" stroke-miterlimit="10" fill="none" transform="matrix(1.00331 0 0 1 -171.529 232.049)"/><path d="M490.559 26.0077C490.279 23.8266 489.717 21.7126 488.795 19.7541L496.42 16.2226C497.724 19.0012 498.527 21.9989 498.901 25.0002L490.559 26.0077Z" stroke="#B59666" stroke-width="0.176755" stroke-miterlimit="10" fill="none" transform="matrix(1.00331 0 0 1 -171.529 232.049)"/><path d="M490.728 33.3395 490.728 28.9277C490.728 28.7686 490.721 28.6414 490.718 28.5L490.693 27.6621C490.693 27.3829 490.651 27.1107 490.633 26.8349 490.605 26.5592 490.594 26.2835 490.555 26.0113L498.898 25.0038C498.947 25.3785 498.969 25.7532 499.004 26.1315 499.029 26.5062 499.082 26.8844 499.085 27.2556L499.117 28.3798 499.128 28.9312 499.128 33.3431 490.725 33.3431Z" stroke="#B59666" stroke-width="0.176755" stroke-miterlimit="10" fill="none" transform="matrix(1.00331 0 0 1 -171.529 232.049)"/><path d="M485.164 14.3348C483.672 12.7016 481.915 11.2487 480.013 10.0538L484.496 2.94474C487.013 4.532 489.328 6.43742 491.365 8.66453L485.164 14.3348Z" stroke="#B59666" stroke-width="0.176755" stroke-miterlimit="10" fill="none" transform="matrix(1.00331 0 0 1 -171.529 232.049)"/><path d="M488.795 19.7577C487.897 17.7886 486.649 15.9751 485.164 14.3384L491.365 8.66806C493.39 10.8952 495.144 13.4404 496.42 16.2296L488.795 19.7612Z" stroke="#B59666" stroke-width="0.176755" stroke-miterlimit="10" fill="none" transform="matrix(1.00331 0 0 1 -171.529 232.049)"/><path d="M477.581 10.0538C475.679 11.2522 473.922 12.7016 472.431 14.3348L466.23 8.66453C468.266 6.43742 470.582 4.53553 473.099 2.94474L477.581 10.0538Z" stroke="#B59666" stroke-width="0.176755" stroke-miterlimit="10" fill="none" transform="matrix(1.00331 0 0 1 -171.529 232.049)"/><path d="M480.013 10.0538C479.777 9.90181 479.536 9.76041 479.296 9.61547L478.797 9.33266 478.299 9.61547C478.059 9.75687 477.818 9.90181 477.581 10.0538L473.099 2.94474C473.413 2.74324 473.735 2.55234 474.057 2.36145 474.216 2.266 474.382 2.17409 474.545 2.08217L474.834 1.91956 475.269 1.69331C475.559 1.5413 475.846 1.38576 476.139 1.25143 476.432 1.11002 476.722 0.968617 477.019 0.848424 477.61 0.593897 478.196 0.36765 478.794 0.123728 479.388 0.36765 479.975 0.597432 480.568 0.848424 480.865 0.968617 481.155 1.11002 481.449 1.25143 481.742 1.38576 482.032 1.5413 482.318 1.69331L482.753 1.91956 483.043 2.08217C483.206 2.17409 483.372 2.266 483.531 2.36145 483.853 2.55234 484.174 2.74324 484.489 2.94474L480.006 10.0538Z" stroke="#B59666" stroke-width="0.176755" stroke-miterlimit="10" fill="none" transform="matrix(1.00331 0 0 1 -171.529 232.049)"/><path d="M468.8 19.7577C467.877 21.7161 467.315 23.8266 467.036 26.0113L458.693 25.0038C459.068 22.0025 459.87 19.0047 461.175 16.2261L468.8 19.7577Z" stroke="#B59666" stroke-width="0.176755" stroke-miterlimit="10" fill="none" transform="matrix(1.00331 0 0 1 -171.529 232.049)"/><path d="M472.431 14.3348C470.942 15.9716 469.698 17.7886 468.8 19.7541L461.175 16.2226C462.455 13.4334 464.204 10.8916 466.23 8.66453L472.431 14.3348Z" stroke="#B59666" stroke-width="0.176755" stroke-miterlimit="10" fill="none" transform="matrix(1.00331 0 0 1 -171.529 232.049)"/><path d="M458.463 33.3395 466.866 33.3395 466.866 41.1804 458.463 41.1804Z" stroke="#B59666" stroke-width="0.176755" stroke-miterlimit="10" fill="none" transform="matrix(1.00331 0 0 1 -171.529 232.049)"/><path d="M467.036 26.0077C466.997 26.2799 466.987 26.5592 466.958 26.8314 466.941 27.1071 466.895 27.3793 466.898 27.6586L466.873 28.4964C466.873 28.6414 466.863 28.7651 466.863 28.9242L466.863 33.336 458.46 33.336 458.46 28.9242 458.471 28.3727 458.502 27.2485C458.502 26.8738 458.555 26.4991 458.584 26.1244 458.619 25.7497 458.64 25.3749 458.69 24.9967L467.033 26.0042Z" stroke="#B59666" stroke-width="0.176755" stroke-miterlimit="10" fill="none" transform="matrix(1.00331 0 0 1 -171.529 232.049)"/><path d="M285.618 81.7774 280.538 76.6975C282.129 75.637 283.504 76.04 283.504 76.04 283.504 73.7457 285.618 71.6176 285.618 71.6176 285.618 71.6176 287.732 73.7457 287.732 76.04 287.732 76.04 289.107 75.637 290.698 76.6975L285.618 81.7774Z" stroke="#B59666" stroke-width="0.176755" stroke-miterlimit="10" fill="none" transform="matrix(1.00331 0 0 1 -171.529 232.049)"/><path d="M350.01 81.7774 344.93 76.6975C346.521 75.637 347.896 76.04 347.896 76.04 347.896 73.7457 350.01 71.6176 350.01 71.6176 350.01 71.6176 352.124 73.7457 352.124 76.04 352.124 76.04 353.499 75.637 355.09 76.6975L350.01 81.7774Z" stroke="#B59666" stroke-width="0.176755" stroke-miterlimit="10" fill="none" transform="matrix(1.00331 0 0 1 -171.529 232.049)"/><path d="M414.406 81.7774 409.326 76.6975C410.916 75.637 412.292 76.04 412.292 76.04 412.292 73.7457 414.406 71.6176 414.406 71.6176 414.406 71.6176 416.52 73.7457 416.52 76.04 416.52 76.04 417.895 75.637 419.485 76.6975L414.406 81.7774Z" stroke="#B59666" stroke-width="0.176755" stroke-miterlimit="10" fill="none" transform="matrix(1.00331 0 0 1 -171.529 232.049)"/><path d="M478.797 81.7774 473.717 76.6975C475.308 75.637 476.683 76.04 476.683 76.04 476.683 73.7457 478.797 71.6176 478.797 71.6176 478.797 71.6176 480.911 73.7457 480.911 76.04 480.911 76.04 482.286 75.637 483.877 76.6975L478.797 81.7774Z" stroke="#B59666" stroke-width="0.176755" stroke-miterlimit="10" fill="none" transform="matrix(1.00331 0 0 1 -171.529 232.049)"/><path d="M412.69 19.3158 417.491 19.3158 417.491 24.1173 412.69 24.1173Z" stroke="#B59666" stroke-width="0.177047" stroke-miterlimit="10" fill="none" transform="matrix(0.708279 -0.70594 0.708279 0.70594 -65.1317 531.426)"/><path d="M412.69 26.1074 417.491 26.1074 417.491 30.9089 412.69 30.9089Z" stroke="#B59666" stroke-width="0.177047" stroke-miterlimit="10" fill="none" transform="matrix(0.708279 -0.70594 0.708279 0.70594 -69.9412 533.413)"/><path d="M412.69 32.8953 417.491 32.8953 417.491 37.6969 412.69 37.6969Z" stroke="#B59666" stroke-width="0.177047" stroke-miterlimit="10" fill="none" transform="matrix(0.708279 -0.70594 0.708279 0.70594 -74.7507 535.4)"/><path d="M477.188 19.3158 481.989 19.3158 481.989 24.1173 477.188 24.1173Z" stroke="#B59666" stroke-width="0.177047" stroke-miterlimit="10" fill="none" transform="matrix(0.708279 -0.70594 0.708279 0.70594 -46.2095 576.958)"/><path d="M477.188 26.1074 481.989 26.1074 481.989 30.9089 477.188 30.9089Z" stroke="#B59666" stroke-width="0.177047" stroke-miterlimit="10" fill="none" transform="matrix(0.708279 -0.70594 0.708279 0.70594 -51.019 578.945)"/><path d="M477.188 32.8953 481.989 32.8953 481.989 37.6969 477.188 37.6969Z" stroke="#B59666" stroke-width="0.177047" stroke-miterlimit="10" fill="none" transform="matrix(0.708279 -0.70594 0.708279 0.70594 -55.8284 580.932)"/><path d="M348.191 19.3158 352.993 19.3158 352.993 24.1173 348.191 24.1173Z" stroke="#B59666" stroke-width="0.177047" stroke-miterlimit="10" fill="none" transform="matrix(0.708279 -0.70594 0.708279 0.70594 -84.0539 485.894)"/><path d="M348.191 26.1074 352.993 26.1074 352.993 30.9089 348.191 30.9089Z" stroke="#B59666" stroke-width="0.177047" stroke-miterlimit="10" fill="none" transform="matrix(0.708279 -0.70594 0.708279 0.70594 -88.8634 487.881)"/><path d="M348.191 32.8953 352.993 32.8953 352.993 37.6969 348.191 37.6969Z" stroke="#B59666" stroke-width="0.177047" stroke-miterlimit="10" fill="none" transform="matrix(0.708279 -0.70594 0.708279 0.70594 -93.6729 489.864)"/><path d="M283.69 19.3158 288.491 19.3158 288.491 24.1173 283.69 24.1173Z" stroke="#B59666" stroke-width="0.177047" stroke-miterlimit="10" fill="none" transform="matrix(0.708279 -0.70594 0.708279 0.70594 -102.976 440.362)"/><path d="M283.69 26.1074 288.491 26.1074 288.491 30.9089 283.69 30.9089Z" stroke="#B59666" stroke-width="0.177047" stroke-miterlimit="10" fill="none" transform="matrix(0.708279 -0.70594 0.708279 0.70594 -107.786 442.349)"/><path d="M283.69 32.8953 288.491 32.8953 288.491 37.6969 283.69 37.6969Z" stroke="#B59666" stroke-width="0.177047" stroke-miterlimit="10" fill="none" transform="matrix(0.708279 -0.70594 0.708279 0.70594 -112.595 444.332)"/><path d="M257.659 63.1192 269.519 74.9795 281.383 63.1192" stroke="#B59666" stroke-width="0.176755" stroke-miterlimit="10" fill="none" transform="matrix(1.00331 0 0 1 -171.529 232.049)"/><path d="M289.857 63.1192 301.717 74.9795 313.581 63.1192" stroke="#B59666" stroke-width="0.176755" stroke-miterlimit="10" fill="none" transform="matrix(1.00331 0 0 1 -171.529 232.049)"/><path d="M322.051 63.1192 333.915 74.9795 345.775 63.1192" stroke="#B59666" stroke-width="0.176755" stroke-miterlimit="10" fill="none" transform="matrix(1.00331 0 0 1 -171.529 232.049)"/><path d="M354.249 63.1192 366.109 74.9795 377.973 63.1192" stroke="#B59666" stroke-width="0.176755" stroke-miterlimit="10" fill="none" transform="matrix(1.00331 0 0 1 -171.529 232.049)"/><path d="M386.446 63.1192 398.307 74.9795 410.167 63.1192" stroke="#B59666" stroke-width="0.176755" stroke-miterlimit="10" fill="none" transform="matrix(1.00331 0 0 1 -171.529 232.049)"/><path d="M418.641 63.1192 430.504 74.9795 442.365 63.1192" stroke="#B59666" stroke-width="0.176755" stroke-miterlimit="10" fill="none" transform="matrix(1.00331 0 0 1 -171.529 232.049)"/><path d="M450.838 63.1192 462.699 74.9795 474.562 63.1192" stroke="#B59666" stroke-width="0.176755" stroke-miterlimit="10" fill="none" transform="matrix(1.00331 0 0 1 -171.529 232.049)"/><path d="M483.032 63.1192 494.896 74.9795 506.756 63.1192" stroke="#B59666" stroke-width="0.176755" stroke-miterlimit="10" fill="none" transform="matrix(1.00331 0 0 1 -171.529 232.049)"/><path d="M267.568 76.0984 272.369 76.0984 272.369 80.8999 267.568 80.8999Z" stroke="#B59666" stroke-width="0.177047" stroke-miterlimit="10" fill="none" transform="matrix(0.708279 -0.70594 0.708279 0.70594 -147.925 445.584)"/><path d="M299.815 76.0984 304.617 76.0984 304.617 80.8999 299.815 80.8999Z" stroke="#B59666" stroke-width="0.177047" stroke-miterlimit="10" fill="none" transform="matrix(0.708279 -0.70594 0.708279 0.70594 -138.466 468.35)"/><path d="M332.066 76.0984 336.867 76.0984 336.867 80.8999 332.066 80.8999Z" stroke="#B59666" stroke-width="0.177047" stroke-miterlimit="10" fill="none" transform="matrix(0.708279 -0.70594 0.708279 0.70594 -129.003 491.116)"/><path d="M364.313 76.0984 369.115 76.0984 369.115 80.8999 364.313 80.8999Z" stroke="#B59666" stroke-width="0.177047" stroke-miterlimit="10" fill="none" transform="matrix(0.708279 -0.70594 0.708279 0.70594 -119.543 513.882)"/><path d="M396.564 76.0984 401.366 76.0984 401.366 80.8999 396.564 80.8999Z" stroke="#B59666" stroke-width="0.177047" stroke-miterlimit="10" fill="none" transform="matrix(0.708279 -0.70594 0.708279 0.70594 -110.08 536.648)"/><path d="M428.815 76.0984 433.617 76.0984 433.617 80.8999 428.815 80.8999Z" stroke="#B59666" stroke-width="0.177047" stroke-miterlimit="10" fill="none" transform="matrix(0.708279 -0.70594 0.708279 0.70594 -100.618 559.414)"/><path d="M461.062 76.0984 465.864 76.0984 465.864 80.8999 461.062 80.8999Z" stroke="#B59666" stroke-width="0.177047" stroke-miterlimit="10" fill="none" transform="matrix(0.708279 -0.70594 0.708279 0.70594 -91.1582 582.18)"/><path d="M493.313 76.0984 498.115 76.0984 498.115 80.8999 493.313 80.8999Z" stroke="#B59666" stroke-width="0.177047" stroke-miterlimit="10" fill="none" transform="matrix(0.708279 -0.70594 0.708279 0.70594 -81.6953 604.946)"/><path d="M281.383 63.1192 285.618 58.8806 289.857 63.1192" stroke="#B59666" stroke-width="0.176755" stroke-miterlimit="10" fill="none" transform="matrix(1.00331 0 0 1 -171.529 232.049)"/><path d="M313.581 63.1192 317.816 58.8806 322.051 63.1192" stroke="#B59666" stroke-width="0.176755" stroke-miterlimit="10" fill="none" transform="matrix(1.00331 0 0 1 -171.529 232.049)"/><path d="M345.775 63.1192 350.01 58.8806 354.249 63.1192" stroke="#B59666" stroke-width="0.176755" stroke-miterlimit="10" fill="none" transform="matrix(1.00331 0 0 1 -171.529 232.049)"/><path d="M377.973 63.1192 382.208 58.8806 386.446 63.1192" stroke="#B59666" stroke-width="0.176755" stroke-miterlimit="10" fill="none" transform="matrix(1.00331 0 0 1 -171.529 232.049)"/><path d="M410.167 63.1192 414.406 58.8806 418.641 63.1192" stroke="#B59666" stroke-width="0.176755" stroke-miterlimit="10" fill="none" transform="matrix(1.00331 0 0 1 -171.529 232.049)"/><path d="M442.365 63.1192 446.6 58.8806 450.838 63.1192" stroke="#B59666" stroke-width="0.176755" stroke-miterlimit="10" fill="none" transform="matrix(1.00331 0 0 1 -171.529 232.049)"/><path d="M474.562 63.1192 478.797 58.8806 483.032 63.1192" stroke="#B59666" stroke-width="0.176755" stroke-miterlimit="10" fill="none" transform="matrix(1.00331 0 0 1 -171.529 232.049)"/><path d="M369.397 21.2C369.474 21.1045 369.559 21.0126 369.644 20.9172 371.68 18.6901 373.992 16.7847 376.513 15.1939 376.827 14.9959 377.149 14.805 377.471 14.6141 377.63 14.5187 377.8 14.4267 377.955 14.3313L378.249 14.1687 378.683 13.9424C378.97 13.7904 379.26 13.6384 379.553 13.5041 379.846 13.3627 380.14 13.2213 380.437 13.0975 381.027 12.843 381.614 12.6168 382.208 12.3764 382.805 12.6203 383.392 12.843 383.982 13.0975 384.276 13.2213 384.569 13.3627 384.863 13.5041 385.156 13.6384 385.442 13.7904 385.736 13.9424L386.164 14.1687 386.457 14.3313C386.62 14.4267 386.786 14.5187 386.948 14.6141 387.27 14.805 387.592 14.9959 387.906 15.1939 390.42 16.7847 392.739 18.6901 394.775 20.9172 394.86 21.0126 394.945 21.1045 395.023 21.2" stroke="#B59666" stroke-width="0.176755" stroke-miterlimit="10" fill="none" transform="matrix(1.00331 0 0 1 -171.529 232.049)"/><path d="M394.072 39.3421C394.061 39.2573 394.054 39.1689 394.05 39.0841 394.022 38.8083 394.012 38.5326 393.973 38.2604 393.697 36.0792 393.131 33.9652 392.209 32.0068 391.311 30.0377 390.066 28.2242 388.578 26.5839 387.09 24.9543 385.329 23.5013 383.431 22.3029 383.194 22.1509 382.95 22.0095 382.713 21.8646L382.211 21.5818 381.716 21.8646C381.473 22.0095 381.236 22.1509 380.999 22.3029 379.093 23.4978 377.34 24.9543 375.845 26.5839 374.363 28.2242 373.116 30.0413 372.214 32.0068 371.295 33.9617 370.729 36.0792 370.45 38.2604 370.415 38.5326 370.404 38.8083 370.376 39.0841 370.369 39.1689 370.365 39.2573 370.355 39.3421" stroke="#B59666" stroke-width="0.176755" stroke-miterlimit="10" fill="none" transform="matrix(1.00331 0 0 1 -171.529 232.049)"/><path d="M305.001 21.2C305.079 21.1045 305.164 21.0126 305.249 20.9172 307.285 18.6901 309.597 16.7847 312.117 15.1939 312.432 14.9959 312.754 14.805 313.075 14.6141 313.235 14.5187 313.404 14.4267 313.56 14.3313L313.853 14.1687 314.288 13.9424C314.574 13.7904 314.864 13.6384 315.158 13.5041 315.451 13.3627 315.744 13.2213 316.041 13.0975 316.632 12.843 317.219 12.6168 317.812 12.3764 318.41 12.6203 318.997 12.843 319.587 13.0975 319.88 13.2213 320.174 13.3627 320.467 13.5041 320.761 13.6384 321.047 13.7904 321.341 13.9424L321.768 14.1687 322.062 14.3313C322.224 14.4267 322.39 14.5187 322.553 14.6141 322.875 14.805 323.196 14.9959 323.511 15.1939 326.025 16.7847 328.344 18.6901 330.38 20.9172 330.465 21.0126 330.549 21.1045 330.627 21.2" stroke="#B59666" stroke-width="0.176755" stroke-miterlimit="10" fill="none" transform="matrix(1.00331 0 0 1 -171.529 232.049)"/><path d="M329.676 39.3421C329.666 39.2573 329.659 39.1689 329.655 39.0841 329.627 38.8083 329.616 38.5326 329.577 38.2604 329.302 36.0792 328.736 33.9652 327.813 32.0068 326.915 30.0377 325.671 28.2242 324.183 26.5839 322.694 24.9543 320.934 23.5013 319.036 22.3029 318.799 22.1509 318.555 22.0095 318.318 21.8646L317.816 21.5818 317.321 21.8646C317.077 22.0095 316.84 22.1509 316.603 22.3029 314.698 23.4978 312.945 24.9543 311.449 26.5839 309.968 28.2242 308.72 30.0413 307.819 32.0068 306.9 33.9617 306.334 36.0792 306.055 38.2604 306.019 38.5326 306.009 38.8083 305.98 39.0841 305.973 39.1689 305.97 39.2573 305.959 39.3421" stroke="#B59666" stroke-width="0.176755" stroke-miterlimit="10" fill="none" transform="matrix(1.00331 0 0 1 -171.529 232.049)"/><path d="M433.788 21.2C433.866 21.1045 433.951 21.0126 434.036 20.9172 436.072 18.6901 438.384 16.7847 440.905 15.1939 441.219 14.9959 441.541 14.805 441.863 14.6141 442.022 14.5187 442.191 14.4267 442.347 14.3313L442.64 14.1687 443.075 13.9424C443.362 13.7904 443.651 13.6384 443.945 13.5041 444.238 13.3627 444.532 13.2213 444.829 13.0975 445.419 12.843 446.006 12.6168 446.6 12.3764 447.197 12.6203 447.784 12.843 448.374 13.0975 448.668 13.2213 448.961 13.3627 449.255 13.5041 449.548 13.6384 449.834 13.7904 450.128 13.9424L450.555 14.1687 450.849 14.3313C451.012 14.4267 451.178 14.5187 451.34 14.6141 451.662 14.805 451.984 14.9959 452.298 15.1939 454.812 16.7847 457.131 18.6901 459.167 20.9172 459.252 21.0126 459.337 21.1045 459.414 21.2" stroke="#B59666" stroke-width="0.176755" stroke-miterlimit="10" fill="none" transform="matrix(1.00331 0 0 1 -171.529 232.049)"/><path d="M458.46 39.3421C458.449 39.2573 458.442 39.1689 458.439 39.0841 458.41 38.8083 458.4 38.5326 458.361 38.2604 458.085 36.0792 457.52 33.9652 456.597 32.0068 455.699 30.0377 454.455 28.2242 452.966 26.5839 451.478 24.9543 449.718 23.5013 447.819 22.3029 447.582 22.1509 447.339 22.0095 447.102 21.8646L446.6 21.5818 446.105 21.8646C445.861 22.0095 445.624 22.1509 445.387 22.3029 443.482 23.4978 441.728 24.9543 440.233 26.5839 438.752 28.2242 437.504 30.0413 436.602 32.0068 435.683 33.9617 435.118 36.0792 434.838 38.2604 434.803 38.5326 434.792 38.8083 434.764 39.0841 434.757 39.1689 434.754 39.2573 434.743 39.3421" stroke="#B59666" stroke-width="0.176755" stroke-miterlimit="10" fill="none" transform="matrix(1.00331 0 0 1 -171.529 232.049)"/><path d="M317.812 21.5818 317.812 12.3764" stroke="#B59666" stroke-width="0.176755" stroke-miterlimit="10" fill="none" transform="matrix(1.00331 0 0 1 -171.529 232.049)"/><path d="M382.208 21.5818 382.208 12.3764" stroke="#B59666" stroke-width="0.176755" stroke-miterlimit="10" fill="none" transform="matrix(1.00331 0 0 1 -171.529 232.049)"/><path d="M446.603 21.5818 446.603 12.3764" stroke="#B59666" stroke-width="0.176755" stroke-miterlimit="10" fill="none" transform="matrix(1.00331 0 0 1 -171.529 232.049)"/><path d="M380.439 6.60031 385.24 6.60031 385.24 11.4018 380.439 11.4018Z" stroke="#B59666" stroke-width="0.177047" stroke-miterlimit="10" fill="none" transform="matrix(0.708279 -0.70594 0.708279 0.70594 -65.5857 504.941)"/><path d="M315.937 6.60031 320.738 6.60031 320.738 11.4018 315.937 11.4018Z" stroke="#B59666" stroke-width="0.177047" stroke-miterlimit="10" fill="none" transform="matrix(0.708279 -0.70594 0.708279 0.70594 -84.5115 459.409)"/><path d="M444.937 6.60031 449.738 6.60031 449.738 11.4018 444.937 11.4018Z" stroke="#B59666" stroke-width="0.177047" stroke-miterlimit="10" fill="none" transform="matrix(0.708279 -0.70594 0.708279 0.70594 -46.667 550.473)"/></g></svg>